<?xml version="1.0" encoding="UTF-8" standalone="no"?>
<!-- Created with Inkscape (http://www.inkscape.org/) -->

<svg
   xmlns:dc="http://purl.org/dc/elements/1.1/"
   xmlns:cc="http://creativecommons.org/ns#"
   xmlns:rdf="http://www.w3.org/1999/02/22-rdf-syntax-ns#"
   xmlns:svg="http://www.w3.org/2000/svg"
   xmlns="http://www.w3.org/2000/svg"
   xmlns:sodipodi="http://sodipodi.sourceforge.net/DTD/sodipodi-0.dtd"
   xmlns:inkscape="http://www.inkscape.org/namespaces/inkscape"
   width="210mm"
   height="297mm"
   viewBox="0 0 210 297"
   version="1.1"
   id="svg8"
   inkscape:version="0.92.3 (2405546, 2018-03-11)"
   sodipodi:docname="arrows.svg">
  <defs
     id="defs2" />
  <sodipodi:namedview
     id="base"
     pagecolor="#ffffff"
     bordercolor="#666666"
     borderopacity="1.0"
     inkscape:pageopacity="0.0"
     inkscape:pageshadow="2"
     inkscape:zoom="0.35"
     inkscape:cx="-107.14286"
     inkscape:cy="560"
     inkscape:document-units="mm"
     inkscape:current-layer="layer1"
     showgrid="false"
     inkscape:window-width="1600"
     inkscape:window-height="821"
     inkscape:window-x="-9"
     inkscape:window-y="-9"
     inkscape:window-maximized="1" />
  <metadata
     id="metadata5">
    <rdf:RDF>
      <cc:Work
         rdf:about="">
        <dc:format>image/svg+xml</dc:format>
        <dc:type
           rdf:resource="http://purl.org/dc/dcmitype/StillImage" />
        <dc:title></dc:title>
      </cc:Work>
    </rdf:RDF>
  </metadata>
  <g
     inkscape:label="Layer 1"
     inkscape:groupmode="layer"
     id="layer1">
    <path
       style="fill:none;stroke:#000000;stroke-width:0.26458332px;stroke-linecap:butt;stroke-linejoin:miter;stroke-opacity:1"
       d="m -15.9,-19.4 c 0.4,1.6 -2.4,2.7 -3.2,4.3 -7.8,9.5 -6.7,24.8 2.6,33 2.5,2.3 5.5,4 8.7,5.2 0.5,-1.9 1.9,-4.2 -0.9,-4.5 -10.1,-4.4 -14.8,-17.6 -9.7,-27.5 1.1,-2.4 2.8,-4.5 4.7,-6.3 1.3,1.6 3,7.9 4,6.4 1.4,-4.2 2.7,-8.3 4,-12.5 -4.3,-1.1 -8.6,-2.3 -13,-3.4 0.9,1.8 1.8,3.6 2.7,5.3 z m 22.7,0 c 10.6,3.4 16.6,16.3 12.4,26.6 -1.1,3.1 -3,5.7 -5.3,8 C 12.5,13.6 10.9,7.3 9.8,8.8 8.4,13 7,17.1 5.7,21.3 c 4.3,1.1 8.6,2.3 13,3.4 -0.4,-2.3 -4.4,-5.3 -1.9,-7 9.4,-8.5 10.2,-24.4 1.5,-33.8 -2.8,-3.2 -6.5,-5.6 -10.5,-6.9 -0.4,1.2 -0.7,2.5 -1,3.7 z"
       id="rotation_clockwise"
       inkscape:connector-curvature="0" />
    <path
       inkscape:connector-curvature="0"
       id="rotation_counterclockwise"
       d="m -15.9,19.4 c 0.4,-1.6 -2.4,-2.7 -3.2,-4.3 -7.8,-9.5 -6.7,-24.8 2.6,-33 2.5,-2.3 5.5,-4 8.7,-5.2 0.5,1.9 1.9,4.2 -0.9,4.5 -10.2,4.4 -14.9,17.6 -9.8,27.5 1.1,2.4 2.8,4.5 4.7,6.3 1.3,-1.6 3,-7.9 4,-6.4 1.4,4.2 2.7,8.3 4,12.5 -4.3,1.1 -8.6,2.3 -13,3.4 0.9,-1.8 1.8,-3.6 2.7,-5.3 z m 22.7,0 C 17.4,16 23.4,3.1 19.2,-7.2 c -1.1,-3 -3,-5.7 -5.4,-8 -1.3,1.6 -3,7.9 -4,6.4 -1.4,-4.2 -2.7,-8.3 -4,-12.5 4.3,-1.1 8.6,-2.3 13,-3.4 -0.4,2.3 -4.4,5.3 -1.9,7 9.4,8.5 10.2,24.4 1.5,33.8 -2.8,3.2 -6.5,5.6 -10.5,6.9 -0.4,-1.2 -0.7,-2.5 -1,-3.7 z"
       style="fill:none;stroke:#000000;stroke-width:0.26458332px;stroke-linecap:butt;stroke-linejoin:miter;stroke-opacity:1" />
  </g>
</svg>
