<?xml version="1.0" encoding="UTF-8" standalone="no"?>
<svg
   xmlns:svg="http://www.w3.org/2000/svg"
   xmlns="http://www.w3.org/2000/svg"
   width="600"
   height="320"
   id="svg2"
   version="1.1">
  <g
     id="bailecito">
    <path
        id="avance_retroceso_1_left"
        d="m 40,160 c 0,0 0,40 40,40 140,0 400,0 440,0 40,0 40,-40 40,-40"
        style="fill:none;stroke:#000000;stroke-width:1px;stroke-linecap:butt;stroke-linejoin:miter;stroke-opacity:1" />
    <path
        id="avance_retroceso_1_right"
        d="m 560,160 c 0,0 0,-40 -40,-40 -140,0 -400,0 -440,0 -40,0 -40,40 -40,40"
        style="fill:none;stroke:#000000;stroke-width:1px;stroke-linecap:butt;stroke-linejoin:miter;stroke-opacity:1" />
    <path
        id="avance_retroceso_2_left"
        d="m 560,160 c 0,0 0,-40 -40,-40 -40,0 -220,0 -220,0 l -260,0"
        style="fill:none;stroke:#000000;stroke-width:1px;stroke-linecap:butt;stroke-linejoin:miter;stroke-opacity:1" />
    <path
        id="avance_retroceso_2_right"
        d="m 40,160 c 0,0 0,40 40,40 40,0 220,0 220,0 l 260,0"
        style="fill:none;stroke:#000000;stroke-width:1px;stroke-linecap:butt;stroke-linejoin:miter;stroke-opacity:1" />
  </g>
</svg>
