<?xml version="1.0" encoding="UTF-8" standalone="no"?>
<!-- Created with Inkscape (http://www.inkscape.org/) -->

<svg
   xmlns:dc="http://purl.org/dc/elements/1.1/"
   xmlns:cc="http://creativecommons.org/ns#"
   xmlns:rdf="http://www.w3.org/1999/02/22-rdf-syntax-ns#"
   xmlns:svg="http://www.w3.org/2000/svg"
   xmlns="http://www.w3.org/2000/svg"
   xmlns:sodipodi="http://sodipodi.sourceforge.net/DTD/sodipodi-0.dtd"
   xmlns:inkscape="http://www.inkscape.org/namespaces/inkscape"
   width="440"
   height="440"
   id="svg2"
   version="1.1"
   inkscape:version="0.91 r13725"
   sodipodi:docname="escondido.svg">
  <defs
     id="defs4">
    <marker
       inkscape:stockid="Arrow1Lend"
       orient="auto"
       refY="0.0"
       refX="0.0"
       id="Arrow1Lend"
       style="overflow:visible;">
      <path
         id="path3951"
         d="M 0.0,0.0 L 5.0,-5.0 L -12.5,0.0 L 5.0,5.0 L 0.0,0.0 z "
         style="fill-rule:evenodd;stroke:#000000;stroke-width:1.0pt;"
         transform="scale(0.8) rotate(180) translate(12.5,0)" />
    </marker>
    <marker
       inkscape:stockid="Arrow2Lend"
       orient="auto"
       refY="0.0"
       refX="0.0"
       id="Arrow2Lend"
       style="overflow:visible;">
      <path
         id="path3969"
         style="fill-rule:evenodd;stroke-width:0.62500000;stroke-linejoin:round;"
         d="M 8.7185878,4.0337352 L -2.2072895,0.016013256 L 8.7185884,-4.0017078 C 6.9730900,-1.6296469 6.9831476,1.6157441 8.7185878,4.0337352 z "
         transform="scale(1.1) rotate(180) translate(1,0)" />
    </marker>
  </defs>
  <sodipodi:namedview
     id="base"
     pagecolor="#ffffff"
     bordercolor="#666666"
     borderopacity="1.0"
     inkscape:pageopacity="0.0"
     inkscape:pageshadow="2"
     inkscape:zoom="1.475"
     inkscape:cx="155.93274"
     inkscape:cy="210.82015"
     inkscape:document-units="px"
     inkscape:current-layer="layer5"
     showgrid="true"
     inkscape:snap-global="true"
     showguides="false"
     inkscape:window-width="1600"
     inkscape:window-height="837"
     inkscape:window-x="-8"
     inkscape:window-y="-8"
     inkscape:window-maximized="1"
     inkscape:snap-nodes="true"
     inkscape:snap-bbox="true">
    <inkscape:grid
       type="xygrid"
       id="grid2985"
       empspacing="8"
       visible="true"
       enabled="true"
       snapvisiblegridlinesonly="true"
       spacingx="10px"
       spacingy="10px"
       dotted="false"
       originx="0px"
       originy="0px" />
  </sodipodi:namedview>
  <metadata
     id="metadata7">
    <rdf:RDF>
      <cc:Work
         rdf:about="">
        <dc:format>image/svg+xml</dc:format>
        <dc:type
           rdf:resource="http://purl.org/dc/dcmitype/StillImage" />
        <dc:title />
      </cc:Work>
    </rdf:RDF>
  </metadata>
  <g
     inkscape:groupmode="layer"
     id="layer1"
     inkscape:label="Слой"
     style="display:none" />
  <g
     inkscape:groupmode="layer"
     id="layer8"
     inkscape:label="avance"
     style="display:none">
    <path
       style="fill:none;stroke:#000000;stroke-width:0.92476457px;stroke-linecap:butt;stroke-linejoin:miter;stroke-opacity:1;display:inline"
       d="m 390,50 -130,0 0,130 130,0 z"
       id="zarandeo_right" />
    <path
       style="fill:none;stroke:#000000;stroke-width:0.92476457px;stroke-linecap:butt;stroke-linejoin:miter;stroke-opacity:1;display:inline"
       d="m 390,390 0,-130 -130,0 0,130 z"
       id="zarandeo_bottom" />
    <path
       id="zarandeo_left"
       d="m 50,390 130,0 0,-130 -130,0 z"
       style="fill:none;stroke:#000000;stroke-width:0.92476457px;stroke-linecap:butt;stroke-linejoin:miter;stroke-opacity:1;display:inline" />
    <path
       id="zarandeo_top"
       d="m 50,50 0,130 130,0 0,-130 z"
       style="fill:none;stroke:#000000;stroke-width:0.92476457px;stroke-linecap:butt;stroke-linejoin:miter;stroke-opacity:1;display:inline" />
  </g>
  <g
     inkscape:groupmode="layer"
     id="layer4"
     inkscape:label="mediavuelta"
     style="display:none">
    <path
       id="media_vuelta_right"
       d="M 390,50 C 360,20 230,50 140,140 50,230 20,360 50,390"
       style="fill:none;stroke:#000000;stroke-width:0.63556314px;stroke-linecap:butt;stroke-linejoin:miter;stroke-opacity:1;display:inline" />
    <path
       style="fill:none;stroke:#000000;stroke-width:0.63556314px;stroke-linecap:butt;stroke-linejoin:miter;stroke-opacity:1;display:inline"
       d="m 50,390 c 30,30 160,0 250,-90 90,-90 120,-220 90,-250"
       id="media_vuelta_left" />
  </g>
  <g
     inkscape:groupmode="layer"
     id="layer5"
     inkscape:label="coronazion"
     style="display:inline">
    <path
       style="display:inline;fill:none;stroke:#000000;stroke-width:0.92476457px;stroke-linecap:butt;stroke-linejoin:miter;stroke-opacity:1"
       d="m 50,390 c 30,20 110,-10 150,-50 40,-40 16,-106 -24,-106 -20,0 -40,10 -40,40 0,25 20,44 40,44 40,0 64,-38 54,-68"
       id="coronacion_left"
       sodipodi:nodetypes="cssccc"
       inkscape:connector-curvature="0" />
    <path
       sodipodi:nodetypes="cssccc"
       id="coronacion_right"
       d="m 390,50 c -30,-20 -110,10 -150,50 -40,40 -16,106 24,106 20,0 40,-10 40,-40 0,-25 -20,-44 -40,-44 -40,0 -64,38 -54,68"
       style="display:inline;fill:none;stroke:#000000;stroke-width:0.92476457px;stroke-linecap:butt;stroke-linejoin:miter;stroke-opacity:1"
       inkscape:connector-curvature="0" />
  </g>
  <g
     inkscape:groupmode="layer"
     id="layer6"
     inkscape:label="frame"
     style="display:inline"
     transform="translate(0,120)"
     sodipodi:insensitive="true">
    <rect
       style="fill:none;stroke:#000000;stroke-opacity:0.16363633"
       id="rect3904"
       width="340"
       height="340"
       x="50.196461"
       y="-70.389328" />
    <path
       sodipodi:type="arc"
       style="fill:none;stroke:#000000;stroke-opacity:0.25454544"
       id="path3083"
       sodipodi:cx="50"
       sodipodi:cy="50"
       sodipodi:rx="10"
       sodipodi:ry="10"
       d="M 60,50 A 10,10 0 0 1 50,60 10,10 0 0 1 40,50 10,10 0 0 1 50,40 10,10 0 0 1 60,50 Z"
       transform="translate(0,-120)" />
    <path
       sodipodi:type="arc"
       style="fill:none;stroke:#000000;stroke-opacity:0.25454544"
       id="path3085"
       sodipodi:cx="390"
       sodipodi:cy="50"
       sodipodi:rx="10"
       sodipodi:ry="10"
       d="M 400,50 A 10,10 0 0 1 390,60 10,10 0 0 1 380,50 10,10 0 0 1 390,40 10,10 0 0 1 400,50 Z"
       transform="translate(0,-120)" />
    <path
       sodipodi:type="arc"
       style="fill:none;stroke:#000000;stroke-opacity:0.25454544"
       id="path3087"
       sodipodi:cx="50"
       sodipodi:cy="390"
       sodipodi:rx="10"
       sodipodi:ry="10"
       d="M 60,390 A 10,10 0 0 1 50,400 10,10 0 0 1 40,390 10,10 0 0 1 50,380 10,10 0 0 1 60,390 Z"
       transform="translate(0,-120)" />
    <path
       sodipodi:type="arc"
       style="fill:none;stroke:#000000;stroke-opacity:0.25454544"
       id="path3089"
       sodipodi:cx="390"
       sodipodi:cy="390"
       sodipodi:rx="10"
       sodipodi:ry="10"
       d="m 400,390 a 10,10 0 0 1 -10,10 10,10 0 0 1 -10,-10 10,10 0 0 1 10,-10 10,10 0 0 1 10,10 z"
       transform="translate(0,-120)" />
    <path
       style="fill:none;stroke:#000000;stroke-width:1px;stroke-linecap:butt;stroke-linejoin:miter;stroke-opacity:0.20454544"
       d="m 220,50 c 0,340 0,340 0,340"
       id="path3091"
       transform="translate(0,-120)" />
    <path
       style="fill:none;stroke:#000000;stroke-width:1px;stroke-linecap:butt;stroke-linejoin:miter;stroke-opacity:0.20454544"
       d="m 50,220 c 340,0 340,0 340,0"
       id="path3093"
       transform="translate(0,-120)" />
    <path
       sodipodi:type="arc"
       style="fill:none;stroke:#000000;stroke-opacity:0.20454544"
       id="path3863"
       sodipodi:cx="50"
       sodipodi:cy="130"
       sodipodi:rx="10"
       sodipodi:ry="10"
       d="M 60,130 A 10,10 0 0 1 50,140 10,10 0 0 1 40,130 10,10 0 0 1 50,120 10,10 0 0 1 60,130 Z"
       transform="translate(0,-120)" />
    <path
       sodipodi:type="arc"
       style="fill:none;stroke:#000000;stroke-opacity:0.20454544"
       id="path3865"
       sodipodi:cx="390"
       sodipodi:cy="130"
       sodipodi:rx="10"
       sodipodi:ry="10"
       d="m 400,130 a 10,10 0 0 1 -10,10 10,10 0 0 1 -10,-10 10,10 0 0 1 10,-10 10,10 0 0 1 10,10 z"
       transform="translate(0,-120)" />
    <path
       sodipodi:type="arc"
       style="fill:none;stroke:#000000;stroke-opacity:0.20454544"
       id="path3867"
       sodipodi:cx="50"
       sodipodi:cy="310"
       sodipodi:rx="10"
       sodipodi:ry="10"
       d="M 60,310 A 10,10 0 0 1 50,320 10,10 0 0 1 40,310 10,10 0 0 1 50,300 10,10 0 0 1 60,310 Z"
       transform="translate(0,-120)" />
    <path
       sodipodi:type="arc"
       style="fill:none;stroke:#000000;stroke-opacity:0.20454544"
       id="path3869"
       sodipodi:cx="390"
       sodipodi:cy="310"
       sodipodi:rx="10"
       sodipodi:ry="10"
       d="m 400,310 a 10,10 0 0 1 -10,10 10,10 0 0 1 -10,-10 10,10 0 0 1 10,-10 10,10 0 0 1 10,10 z"
       transform="translate(0,-120)" />
    <path
       style="fill:none;stroke:#000000;stroke-width:1px;stroke-linecap:butt;stroke-linejoin:miter;stroke-opacity:0.23181817"
       d="m 50,130 c 340,0 340,0 340,0"
       id="path3871"
       transform="translate(0,-120)" />
    <path
       style="fill:none;stroke:#000000;stroke-width:1px;stroke-linecap:butt;stroke-linejoin:miter;stroke-opacity:0.23181817"
       d="m 50,310 c 340,0 340,0 340,0"
       id="path3873"
       transform="translate(0,-120)" />
  </g>
  <g
     inkscape:groupmode="layer"
     id="layer15"
     inkscape:label="chacarera 4 - mediaVuelta"
     sodipodi:insensitive="true"
     style="display:none">
    <path
       style="fill:none;stroke:#000000;stroke-width:0.42422557px;stroke-linecap:butt;stroke-linejoin:miter;stroke-opacity:1;display:inline"
       d="m 50,130 c 0,30 80,70 170,70 90,0 170,-40 170,-70"
       id="path2987-2-4" />
    <path
       id="path3827-0"
       d="M 390,130 C 390,100 310,60 220,60 130,60 50,100 50,130"
       style="fill:none;stroke:#000000;stroke-width:0.42422557px;stroke-linecap:butt;stroke-linejoin:miter;stroke-opacity:1;display:inline" />
    <path
       id="path3906"
       d="m 50,310 c 0,30 80,70 170,70 90,0 170,-40 170,-70"
       style="fill:none;stroke:#000000;stroke-width:0.42422557px;stroke-linecap:butt;stroke-linejoin:miter;stroke-opacity:1;display:inline" />
    <path
       style="fill:none;stroke:#000000;stroke-width:0.42422557px;stroke-linecap:butt;stroke-linejoin:miter;stroke-opacity:1;display:inline"
       d="m 390,310 c 0,-30 -80,-70 -170,-70 -90,0 -170,40 -170,70"
       id="path3908" />
  </g>
  <g
     inkscape:groupmode="layer"
     id="layer20"
     inkscape:label="chacarera 4 - vuelta etalon"
     sodipodi:insensitive="true">
    <path
       sodipodi:type="arc"
       style="fill:none;stroke:#000000;stroke-opacity:0.23181817"
       id="path3986"
       sodipodi:cx="220"
       sodipodi:cy="220"
       sodipodi:rx="190"
       sodipodi:ry="190"
       d="m 410,220 a 190,190 0 1 1 -380,0 190,190 0 1 1 380,0 z" />
  </g>
  <g
     inkscape:groupmode="layer"
     id="layer21"
     inkscape:label="chacarera 4 - vuelta all"
     style="display:none">
    <path
       style="fill:none;stroke:#000000;stroke-width:1px;stroke-linecap:butt;stroke-linejoin:miter;stroke-opacity:1"
       d="m 50,310 c 76,130 274,132 340,0 30,-60 30,-120 0,-180 C 324,-2 116,-2 50,130 20,190 20,260 50,310 z"
       id="vuelta_all" />
  </g>
  <g
     inkscape:groupmode="layer"
     id="layer22"
     inkscape:label="chacarera 4 - mediaVuelta#1"
     style="display:none">
    <path
       id="media_vuelta_2_left"
       d="m 50,310 c 76,130 274,132 340,0 30,-60 30,-120 0,-180"
       style="fill:none;stroke:#000000;stroke-width:1px;stroke-linecap:butt;stroke-linejoin:miter;stroke-opacity:1" />
    <path
       style="fill:none;stroke:#000000;stroke-width:1px;stroke-linecap:butt;stroke-linejoin:miter;stroke-opacity:1"
       d="M 390,130 C 314,0 116,-2 50,130 20,190 20,250 50,310"
       id="media_vuelta_1_right" />
  </g>
  <g
     inkscape:groupmode="layer"
     id="layer23"
     inkscape:label="chacarera 4 - mediaVuelta#2"
     sodipodi:insensitive="true"
     style="display:none">
    <path
       id="media_vuelta_2_right"
       d="M 390,310 C 420,250 420,190 390,130 324,-2 116,-2 50,130"
       style="fill:none;stroke:#000000;stroke-width:1px;stroke-linecap:butt;stroke-linejoin:miter;stroke-opacity:1;display:inline" />
    <path
       style="fill:none;stroke:#000000;stroke-width:1px;stroke-linecap:butt;stroke-linejoin:miter;stroke-opacity:1;display:inline"
       d="m 50,130 c -30,60 -30,120 0,180 66,132 274,132 340,0"
       id="media_vuelta_1_left" />
  </g>
  <g
     inkscape:groupmode="layer"
     id="layer16"
     inkscape:label="chacarera 4 - vuelta"
     style="display:none"
     sodipodi:insensitive="true">
    <path
       style="fill:none;stroke:#000000;stroke-width:1px;stroke-linecap:butt;stroke-linejoin:miter;stroke-opacity:1"
       d="m 50,130 c 0,30 80,70 170,70 90,0 170,-40 170,-70 0,-30 -80,-70 -170,-70 -90,0 -170,40 -170,70 z"
       id="path3911" />
    <path
       id="path3913"
       d="m 50,310 c 0,30 80,70 170,70 90,0 170,-40 170,-70 0,-30 -80,-70 -170,-70 -90,0 -170,40 -170,70 z"
       style="fill:none;stroke:#000000;stroke-width:1px;stroke-linecap:butt;stroke-linejoin:miter;stroke-opacity:1" />
    <path
       style="fill:none;stroke:#000000;stroke-width:0.63944221px;stroke-linecap:butt;stroke-linejoin:miter;stroke-opacity:1;display:inline"
       d="m 50,130 c 0,30 70,40 100,40 30,0 53,-15 53,-40 0,-16 -10,-25 -25,-25 -16,0 -25,10 -25,25 0,16 10,25 25,25 16,0 22,-5 32,-25"
       id="path3830-9" />
    <path
       id="path3934"
       d="m 390,130 c 0,-30 -70,-40 -100,-40 -30,0 -53,15 -53,40 0,16 10,25 25,25 16,0 25,-10 25,-25 0,-16 -10,-25 -25,-25 -16,0 -22,5 -32,25"
       style="fill:none;stroke:#000000;stroke-width:0.63944221px;stroke-linecap:butt;stroke-linejoin:miter;stroke-opacity:1;display:inline" />
    <path
       id="path3936"
       d="m 50,310 c 0,30 70,40 100,40 30,0 53,-15 53,-40 0,-16 -10,-25 -25,-25 -16,0 -25,10 -25,25 0,16 10,25 25,25 16,0 22,-5 32,-25"
       style="fill:none;stroke:#000000;stroke-width:0.63944221px;stroke-linecap:butt;stroke-linejoin:miter;stroke-opacity:1;display:inline" />
    <path
       style="fill:none;stroke:#000000;stroke-width:0.63944221px;stroke-linecap:butt;stroke-linejoin:miter;stroke-opacity:1;display:inline"
       d="m 390,310 c 0,-30 -70,-40 -100,-40 -30,0 -53,15 -53,40 0,16 10,25 25,25 16,0 25,-10 25,-25 0,-16 -10,-25 -25,-25 -16,0 -22,5 -32,25"
       id="path3938" />
  </g>
  <g
     inkscape:groupmode="layer"
     id="layer18"
     inkscape:label="chacarera 4 - giro"
     sodipodi:insensitive="true"
     style="display:none">
    <path
       style="fill:none;stroke:#000000;stroke-width:0.5970149px;stroke-linecap:butt;stroke-linejoin:miter;stroke-opacity:1;display:inline"
       d="m 50,130 c 0,35 25,60 60,60 35,0 60,-25 60,-60 0,-35 -25,-60 -60,-60 -35,0 -60,25 -60,60 z"
       id="giro_1_left" />
    <path
       id="giro_1_right"
       d="m 390,130 c 0,-35 -25,-60 -60,-60 -35,0 -60,25 -60,60 0,35 25,60 60,60 35,0 60,-25 60,-60 z"
       style="fill:none;stroke:#000000;stroke-width:0.5970149px;stroke-linecap:butt;stroke-linejoin:miter;stroke-opacity:1;display:inline" />
    <path
       id="giro_2_left"
       d="m 50,310 c 0,35 25,60 60,60 35,0 60,-25 60,-60 0,-35 -25,-60 -60,-60 -35,0 -60,25 -60,60 z"
       style="fill:none;stroke:#000000;stroke-width:0.5970149px;stroke-linecap:butt;stroke-linejoin:miter;stroke-opacity:1;display:inline" />
    <path
       style="fill:none;stroke:#000000;stroke-width:0.5970149px;stroke-linecap:butt;stroke-linejoin:miter;stroke-opacity:1;display:inline"
       d="m 390,310 c 0,-35 -25,-60 -60,-60 -35,0 -60,25 -60,60 0,35 25,60 60,60 35,0 60,-25 60,-60 z"
       id="giro_2_right" />
  </g>
  <g
     inkscape:groupmode="layer"
     id="layer19"
     inkscape:label="chacarera 4 - avanse"
     sodipodi:insensitive="true"
     style="display:none">
    <path
       style="fill:none;stroke:#000000;stroke-width:1px;stroke-linecap:butt;stroke-linejoin:miter;stroke-opacity:1"
       d="m 50,130 60,60 60,-60 -60,-60 z"
       id="avance_1_left" />
    <path
       id="avance_1_right"
       d="m 390,130 -60,-60 -60,60 60,60 z"
       style="fill:none;stroke:#000000;stroke-width:1px;stroke-linecap:butt;stroke-linejoin:miter;stroke-opacity:1" />
    <path
       id="avance_2_left"
       d="m 50,310 60,60 60,-60 -60,-60 z"
       style="fill:none;stroke:#000000;stroke-width:1px;stroke-linecap:butt;stroke-linejoin:miter;stroke-opacity:1" />
    <path
       style="fill:none;stroke:#000000;stroke-width:1px;stroke-linecap:butt;stroke-linejoin:miter;stroke-opacity:1"
       d="m 390,310 -60,-60 -60,60 60,60 z"
       id="avance_2_right" />
  </g>
  <g
     inkscape:groupmode="layer"
     id="layer17"
     inkscape:label="chacarera 4 - coronacion"
     style="display:none">
    <path
       style="display:inline;fill:none;stroke:#000000;stroke-width:0.63745022px;stroke-linecap:butt;stroke-linejoin:miter;stroke-opacity:1"
       d="m 50,130 c 0,25 40,40 90,40 65,0 59,-60 23.59081,-60.44575 C 128.18162,109.1085 129,160 159.08475,160.08475 179,160 190,150 200.47939,139.55425"
       id="chacarera_4_coronacion1_left"
       inkscape:connector-curvature="0"
       sodipodi:nodetypes="cczcc" />
    <path
       sodipodi:nodetypes="cczcc"
       inkscape:connector-curvature="0"
       id="chacarera_4_coronacion1_right"
       d="m 390.05563,129.97509 c 0,-25 -39.99999,-40.00002 -89.99999,-40.00002 -65,0 -59,60.00002 -23.59081,60.44577 35.40919,0.44575 34.59081,-50.44577 4.50606,-50.53052 C 261,100 250,110 239.57625,120.42084"
       style="display:inline;fill:none;stroke:#000000;stroke-width:0.63745022px;stroke-linecap:butt;stroke-linejoin:miter;stroke-opacity:1" />
    <path
       sodipodi:nodetypes="cczcc"
       inkscape:connector-curvature="0"
       id="chacarera_4_coronacion2_left"
       d="m 50,310.05992 c 0,25 40,40 90,40 65,0 59,-60 23.59081,-60.44575 C 128.18162,289.16842 129,340.05992 159.08475,340.14467 179,340.05992 190,330.05992 200.47939,319.61417"
       style="display:inline;fill:none;stroke:#000000;stroke-width:0.63745022px;stroke-linecap:butt;stroke-linejoin:miter;stroke-opacity:1" />
    <path
       style="display:inline;fill:none;stroke:#000000;stroke-width:0.63745022px;stroke-linecap:butt;stroke-linejoin:miter;stroke-opacity:1"
       d="m 390.05563,310.03501 c 0,-25 -39.99999,-40.00002 -89.99999,-40.00002 -65,0 -59,60.00002 -23.59081,60.44577 35.40919,0.44575 34.59081,-50.44577 4.50606,-50.53052 C 261,280.05992 250,290.05992 239.57625,300.48076"
       id="chacarera_4_coronacion2_right"
       inkscape:connector-curvature="0"
       sodipodi:nodetypes="cczcc" />
  </g>
  <g
     inkscape:groupmode="layer"
     id="layer3"
     inkscape:label="chacarera4 - cadena"
     style="display:none">
    <path
       style="fill:none;stroke:#000000;stroke-width:1px;stroke-linecap:butt;stroke-linejoin:miter;stroke-opacity:1"
       d="m 50,310 c 0,30 170,30 170,30 l 140,0 0,-240 -280,0 c 0,0 0,60 0,120 0,60 -30,90 -30,90"
       id="pathL2"
       sodipodi:nodetypes="cccccsc" />
    <path
       sodipodi:nodetypes="cccccsc"
       id="pathR1"
       d="m 390,130 c 0,-30 -170,-30 -170,-30 l -140,0 0,240 280,0 c 0,0 0,-60 0,-120 0,-60 30,-90 30,-90"
       style="fill:none;stroke:#000000;stroke-width:1px;stroke-linecap:butt;stroke-linejoin:miter;stroke-opacity:1" />
    <path
       sodipodi:nodetypes="cccccsc"
       id="pathL1"
       d="m 50,130 c 0,30 170,30 170,30 l 200,0 0,120 -400,0 c 0,0 0,0 0,-60 0,-60 30,-90 30,-90"
       style="fill:none;stroke:#000000;stroke-width:1px;stroke-linecap:butt;stroke-linejoin:miter;stroke-opacity:1" />
    <path
       style="fill:none;stroke:#000000;stroke-width:1px;stroke-linecap:butt;stroke-linejoin:miter;stroke-opacity:1"
       d="m 390,310 c 0,-30 -170,-30 -170,-30 l -200,0 0,-120 400,0 c 0,0 0,0 0,60 0,60 -30,90 -30,90"
       id="pathR2"
       sodipodi:nodetypes="cccccsc" />
    <path
       style="fill:none;stroke:#ff0000;stroke-width:1px;stroke-linecap:butt;stroke-linejoin:miter;stroke-opacity:1"
       d="m 50,310 340,0 0,-180 -340,0 z"
       id="pathEtalon" />
  </g>
  <g
     inkscape:groupmode="layer"
     id="layer9"
     inkscape:label="esquina_remedio"
     style="display:none">
    <path
       style="fill:none;stroke:#000000;stroke-width:1px;stroke-linecap:butt;stroke-linejoin:miter;stroke-opacity:1"
       d="m 50,390 c 0,0 90,-70 90,-170 C 140,120 50,50 50,50"
       id="path3907" />
    <path
       id="path3097"
       d="m 50,50 c 0,0 70,90 170,90 100,0 170,-90 170,-90"
       style="fill:none;stroke:#000000;stroke-width:1px;stroke-linecap:butt;stroke-linejoin:miter;stroke-opacity:1" />
    <path
       id="path3099"
       d="m 390,50 c 0,0 -90,70 -90,170 0,100 90,170 90,170"
       style="fill:none;stroke:#000000;stroke-width:1px;stroke-linecap:butt;stroke-linejoin:miter;stroke-opacity:1" />
    <path
       style="fill:none;stroke:#000000;stroke-width:1px;stroke-linecap:butt;stroke-linejoin:miter;stroke-opacity:1"
       d="m 390,390 c 0,0 -70,-90 -170,-90 -100,0 -170,90 -170,90"
       id="path3101" />
  </g>
  <g
     inkscape:groupmode="layer"
     id="layer10"
     inkscape:label="esquina_escondido"
     style="display:none">
    <path
       style="fill:none;stroke:#000000;stroke-width:1px;stroke-linecap:butt;stroke-linejoin:miter;stroke-opacity:1"
       d="M 50,390 50,50"
       id="esquina_left" />
    <path
       style="fill:none;stroke:#000000;stroke-width:1px;stroke-linecap:butt;stroke-linejoin:miter;stroke-opacity:1"
       d="M 50,50 70,30 50,50"
       id="balanceo_left" />
    <path
       style="fill:none;stroke:#000000;stroke-width:1px;stroke-linecap:butt;stroke-linejoin:miter;stroke-opacity:1"
       d="M 50,50 30,70 50,50"
       id="balanceo2_left" />
    <path
       id="esquina_top"
       d="m 50,50 340,0"
       style="fill:none;stroke:#000000;stroke-width:1px;stroke-linecap:butt;stroke-linejoin:miter;stroke-opacity:1" />
    <path
       id="balanceo_top"
       d="M 390,50 410,70 390,50"
       style="fill:none;stroke:#000000;stroke-width:1px;stroke-linecap:butt;stroke-linejoin:miter;stroke-opacity:1" />
    <path
       id="balanceo2_top"
       d="M 390,50 370,30 390,50"
       style="fill:none;stroke:#000000;stroke-width:1px;stroke-linecap:butt;stroke-linejoin:miter;stroke-opacity:1" />
    <path
       id="esquina_right"
       d="m 390,50 0,340"
       style="fill:none;stroke:#000000;stroke-width:1px;stroke-linecap:butt;stroke-linejoin:miter;stroke-opacity:1" />
    <path
       id="balanceo_right"
       d="m 390,390 -20,20 20,-20"
       style="fill:none;stroke:#000000;stroke-width:1px;stroke-linecap:butt;stroke-linejoin:miter;stroke-opacity:1" />
    <path
       id="balanceo2_right"
       d="m 390,390 20,-20 -20,20"
       style="fill:none;stroke:#000000;stroke-width:1px;stroke-linecap:butt;stroke-linejoin:miter;stroke-opacity:1" />
    <path
       style="fill:none;stroke:#000000;stroke-width:1px;stroke-linecap:butt;stroke-linejoin:miter;stroke-opacity:1"
       d="M 390,390 50,390"
       id="esquina_bottom" />
    <path
       style="fill:none;stroke:#000000;stroke-width:1px;stroke-linecap:butt;stroke-linejoin:miter;stroke-opacity:1"
       d="M 50,390 30,370 50,390"
       id="balanceo_bottom" />
    <path
       style="fill:none;stroke:#000000;stroke-width:1px;stroke-linecap:butt;stroke-linejoin:miter;stroke-opacity:1"
       d="M 50,390 70,410 50,390"
       id="balanceo2_bottom" />
  </g>
  <g
     inkscape:groupmode="layer"
     id="layer7"
     inkscape:label="remedio - coronacion">
    <path
       style="fill:none;stroke:#000000;stroke-width:1px;stroke-linecap:butt;stroke-linejoin:miter;stroke-opacity:1"
       d="M 50,390 200,240"
       id="path3086"
       inkscape:connector-curvature="0"
       sodipodi:nodetypes="cc" />
    <path
       style="fill:none;stroke:#000000;stroke-width:1px;stroke-linecap:butt;stroke-linejoin:miter;stroke-opacity:1"
       d="M 390,50 240,200"
       id="path3088"
       inkscape:connector-curvature="0"
       sodipodi:nodetypes="cc" />
  </g>
  <g
     inkscape:groupmode="layer"
     id="layer2"
     inkscape:label="vuelta"
     style="display:none">
    <path
       id="vuelta"
       d="m 50,390 c 30,30 160,0 250,-90 C 390,210 420,80 390,50 360,20 230,50 140,140 50,230 20,360 50,390 z"
       style="fill:none;stroke:#000000;stroke-width:0.63556314px;stroke-linecap:butt;stroke-linejoin:miter;stroke-opacity:1;display:inline" />
    <path
       style="fill:none;stroke:#000000;stroke-width:1px;stroke-linecap:butt;stroke-linejoin:miter;stroke-opacity:1"
       d="m 50,390 c 20,20 70,10 70,-30 0,-20 -20,-40 -40,-40 -40,0 -50,50 -30,70"
       id="giro_left" />
    <path
       id="giro_right"
       d="m 390,50 c -20,-20 -70,-10 -70,30 0,20 20,40 40,40 40,0 50,-50 30,-70"
       style="fill:none;stroke:#000000;stroke-width:1px;stroke-linecap:butt;stroke-linejoin:miter;stroke-opacity:1" />
  </g>
</svg>
