<?xml version="1.0" encoding="UTF-8" standalone="no"?>
<!-- Created with Inkscape (http://www.inkscape.org/) -->

<svg
   xmlns:dc="http://purl.org/dc/elements/1.1/"
   xmlns:cc="http://creativecommons.org/ns#"
   xmlns:rdf="http://www.w3.org/1999/02/22-rdf-syntax-ns#"
   xmlns:svg="http://www.w3.org/2000/svg"
   xmlns="http://www.w3.org/2000/svg"
   xmlns:sodipodi="http://sodipodi.sourceforge.net/DTD/sodipodi-0.dtd"
   xmlns:inkscape="http://www.inkscape.org/namespaces/inkscape"
   width="440"
   height="440"
   id="svg2"
   version="1.1"
   inkscape:version="0.48.4 r9939"
   sodipodi:docname="escondido.svg">
  <defs
     id="defs4">
    <marker
       inkscape:stockid="Arrow1Lend"
       orient="auto"
       refY="0.0"
       refX="0.0"
       id="Arrow1Lend"
       style="overflow:visible;">
      <path
         id="path3951"
         d="M 0.0,0.0 L 5.0,-5.0 L -12.5,0.0 L 5.0,5.0 L 0.0,0.0 z "
         style="fill-rule:evenodd;stroke:#000000;stroke-width:1.0pt;"
         transform="scale(0.8) rotate(180) translate(12.5,0)" />
    </marker>
    <marker
       inkscape:stockid="Arrow2Lend"
       orient="auto"
       refY="0.0"
       refX="0.0"
       id="Arrow2Lend"
       style="overflow:visible;">
      <path
         id="path3969"
         style="fill-rule:evenodd;stroke-width:0.62500000;stroke-linejoin:round;"
         d="M 8.7185878,4.0337352 L -2.2072895,0.016013256 L 8.7185884,-4.0017078 C 6.9730900,-1.6296469 6.9831476,1.6157441 8.7185878,4.0337352 z "
         transform="scale(1.1) rotate(180) translate(1,0)" />
    </marker>
  </defs>
  <sodipodi:namedview
     id="base"
     pagecolor="#ffffff"
     bordercolor="#666666"
     borderopacity="1.0"
     inkscape:pageopacity="0.0"
     inkscape:pageshadow="2"
     inkscape:zoom="1.475"
     inkscape:cx="342.7124"
     inkscape:cy="210.82015"
     inkscape:document-units="px"
     inkscape:current-layer="layer7"
     showgrid="true"
     inkscape:snap-global="true"
     showguides="false"
     inkscape:window-width="1600"
     inkscape:window-height="837"
     inkscape:window-x="-8"
     inkscape:window-y="-8"
     inkscape:window-maximized="1"
     inkscape:snap-nodes="true"
     inkscape:snap-bbox="true">
    <inkscape:grid
       type="xygrid"
       id="grid2985"
       empspacing="8"
       visible="true"
       enabled="true"
       snapvisiblegridlinesonly="true"
       spacingx="10px"
       spacingy="10px"
       dotted="false"
       originx="0px"
       originy="0px" />
  </sodipodi:namedview>
  <metadata
     id="metadata7">
    <rdf:RDF>
      <cc:Work
         rdf:about="">
        <dc:format>image/svg+xml</dc:format>
        <dc:type
           rdf:resource="http://purl.org/dc/dcmitype/StillImage" />
        <dc:title />
      </cc:Work>
    </rdf:RDF>
  </metadata>
  <g
     inkscape:groupmode="layer"
     id="layer1"
     inkscape:label="Слой"
     style="display:none" />
  <g
     inkscape:groupmode="layer"
     id="layer8"
     inkscape:label="avance"
     style="display:none">
    <path
       style="fill:none;stroke:#000000;stroke-width:0.92476457px;stroke-linecap:butt;stroke-linejoin:miter;stroke-opacity:1;display:inline"
       d="m 390,50 -130,0 0,130 130,0 z"
       id="path3795"
       inkscape:connector-curvature="0"
       sodipodi:nodetypes="ccccc" />
    <path
       inkscape:connector-curvature="0"
       id="path3847"
       d="m 50,390 130,0 0,-130 -130,0 z"
       style="fill:none;stroke:#000000;stroke-width:0.92476457px;stroke-linecap:butt;stroke-linejoin:miter;stroke-opacity:1;display:inline"
       sodipodi:nodetypes="ccccc" />
  </g>
  <g
     inkscape:groupmode="layer"
     id="layer4"
     inkscape:label="mediavuelta"
     style="display:none">
    <path
       sodipodi:nodetypes="csc"
       inkscape:connector-curvature="0"
       id="path3827"
       d="M 390,50 C 360,20 230,50 140,140 50,230 20,360 50,390"
       style="fill:none;stroke:#000000;stroke-width:0.63556314px;stroke-linecap:butt;stroke-linejoin:miter;stroke-opacity:1;display:inline" />
    <path
       style="fill:none;stroke:#000000;stroke-width:0.63556314px;stroke-linecap:butt;stroke-linejoin:miter;stroke-opacity:1;display:inline"
       d="m 50,390 c 30,30 160,0 250,-90 90,-90 120,-220 90,-250"
       id="path2987-2"
       inkscape:connector-curvature="0"
       sodipodi:nodetypes="csc" />
  </g>
  <g
     inkscape:groupmode="layer"
     id="layer5"
     inkscape:label="coronazion"
     style="display:none">
    <path
       style="fill:none;stroke:#000000;stroke-width:0.92476457px;stroke-linecap:butt;stroke-linejoin:miter;stroke-opacity:1;display:inline"
       d="m 50,390 c 30,20 110,-20 150,-60 40,-40 20,-110 -20,-110 -20,0 -40,10 -40,40 0,25 20,40 40,40 40,0 60,-30 50,-60"
       id="path3830"
       inkscape:connector-curvature="0"
       sodipodi:nodetypes="cssccc" />
    <path
       sodipodi:nodetypes="cssccc"
       inkscape:connector-curvature="0"
       id="path3902"
       d="m 390,50 c -30,-20 -110,20 -150,60 -40,40 -20,110 20,110 20,0 40,-10 40,-40 0,-25 -20,-40 -40,-40 -40,0 -60,30 -50,60"
       style="fill:none;stroke:#000000;stroke-width:0.92476457px;stroke-linecap:butt;stroke-linejoin:miter;stroke-opacity:1;display:inline" />
  </g>
  <g
     inkscape:groupmode="layer"
     id="layer6"
     inkscape:label="frame"
     style="display:inline"
     transform="translate(0,120)"
     sodipodi:insensitive="true">
    <rect
       style="fill:none;stroke:#000000;stroke-opacity:0.16363633"
       id="rect3904"
       width="340"
       height="340"
       x="50.196461"
       y="-70.389328" />
    <path
       sodipodi:type="arc"
       style="fill:none;stroke:#000000;stroke-opacity:0.25454544"
       id="path3083"
       sodipodi:cx="50"
       sodipodi:cy="50"
       sodipodi:rx="10"
       sodipodi:ry="10"
       d="m 60,50 c 0,5.522847 -4.477153,10 -10,10 -5.522847,0 -10,-4.477153 -10,-10 0,-5.522847 4.477153,-10 10,-10 5.522847,0 10,4.477153 10,10 z"
       transform="translate(0,-120)" />
    <path
       sodipodi:type="arc"
       style="fill:none;stroke:#000000;stroke-opacity:0.25454544"
       id="path3085"
       sodipodi:cx="390"
       sodipodi:cy="50"
       sodipodi:rx="10"
       sodipodi:ry="10"
       d="m 400,50 c 0,5.522847 -4.47715,10 -10,10 -5.52285,0 -10,-4.477153 -10,-10 0,-5.522847 4.47715,-10 10,-10 5.52285,0 10,4.477153 10,10 z"
       transform="translate(0,-120)" />
    <path
       sodipodi:type="arc"
       style="fill:none;stroke:#000000;stroke-opacity:0.25454544"
       id="path3087"
       sodipodi:cx="50"
       sodipodi:cy="390"
       sodipodi:rx="10"
       sodipodi:ry="10"
       d="m 60,390 c 0,5.52285 -4.477153,10 -10,10 -5.522847,0 -10,-4.47715 -10,-10 0,-5.52285 4.477153,-10 10,-10 5.522847,0 10,4.47715 10,10 z"
       transform="translate(0,-120)" />
    <path
       sodipodi:type="arc"
       style="fill:none;stroke:#000000;stroke-opacity:0.25454544"
       id="path3089"
       sodipodi:cx="390"
       sodipodi:cy="390"
       sodipodi:rx="10"
       sodipodi:ry="10"
       d="m 400,390 c 0,5.52285 -4.47715,10 -10,10 -5.52285,0 -10,-4.47715 -10,-10 0,-5.52285 4.47715,-10 10,-10 5.52285,0 10,4.47715 10,10 z"
       transform="translate(0,-120)" />
    <path
       style="fill:none;stroke:#000000;stroke-width:1px;stroke-linecap:butt;stroke-linejoin:miter;stroke-opacity:0.20454544"
       d="m 220,50 c 0,340 0,340 0,340"
       id="path3091"
       inkscape:connector-curvature="0"
       transform="translate(0,-120)" />
    <path
       style="fill:none;stroke:#000000;stroke-width:1px;stroke-linecap:butt;stroke-linejoin:miter;stroke-opacity:0.20454544"
       d="m 50,220 c 340,0 340,0 340,0"
       id="path3093"
       inkscape:connector-curvature="0"
       transform="translate(0,-120)" />
    <path
       sodipodi:type="arc"
       style="fill:none;stroke:#000000;stroke-opacity:0.20454544"
       id="path3863"
       sodipodi:cx="50"
       sodipodi:cy="130"
       sodipodi:rx="10"
       sodipodi:ry="10"
       d="m 60,130 c 0,5.52285 -4.477153,10 -10,10 -5.522847,0 -10,-4.47715 -10,-10 0,-5.52285 4.477153,-10 10,-10 5.522847,0 10,4.47715 10,10 z"
       transform="translate(0,-120)" />
    <path
       sodipodi:type="arc"
       style="fill:none;stroke:#000000;stroke-opacity:0.20454544"
       id="path3865"
       sodipodi:cx="390"
       sodipodi:cy="130"
       sodipodi:rx="10"
       sodipodi:ry="10"
       d="m 400,130 c 0,5.52285 -4.47715,10 -10,10 -5.52285,0 -10,-4.47715 -10,-10 0,-5.52285 4.47715,-10 10,-10 5.52285,0 10,4.47715 10,10 z"
       transform="translate(0,-120)" />
    <path
       sodipodi:type="arc"
       style="fill:none;stroke:#000000;stroke-opacity:0.20454544"
       id="path3867"
       sodipodi:cx="50"
       sodipodi:cy="310"
       sodipodi:rx="10"
       sodipodi:ry="10"
       d="m 60,310 c 0,5.52285 -4.477153,10 -10,10 -5.522847,0 -10,-4.47715 -10,-10 0,-5.52285 4.477153,-10 10,-10 5.522847,0 10,4.47715 10,10 z"
       transform="translate(0,-120)" />
    <path
       sodipodi:type="arc"
       style="fill:none;stroke:#000000;stroke-opacity:0.20454544"
       id="path3869"
       sodipodi:cx="390"
       sodipodi:cy="310"
       sodipodi:rx="10"
       sodipodi:ry="10"
       d="m 400,310 c 0,5.52285 -4.47715,10 -10,10 -5.52285,0 -10,-4.47715 -10,-10 0,-5.52285 4.47715,-10 10,-10 5.52285,0 10,4.47715 10,10 z"
       transform="translate(0,-120)" />
    <path
       style="fill:none;stroke:#000000;stroke-width:1px;stroke-linecap:butt;stroke-linejoin:miter;stroke-opacity:0.23181817"
       d="m 50,130 c 340,0 340,0 340,0"
       id="path3871"
       inkscape:connector-curvature="0"
       transform="translate(0,-120)" />
    <path
       style="fill:none;stroke:#000000;stroke-width:1px;stroke-linecap:butt;stroke-linejoin:miter;stroke-opacity:0.23181817"
       d="m 50,310 c 340,0 340,0 340,0"
       id="path3873"
       inkscape:connector-curvature="0"
       transform="translate(0,-120)" />
  </g>
  <g
     inkscape:groupmode="layer"
     id="layer15"
     inkscape:label="chacarera 4 - mediaVuelta"
     sodipodi:insensitive="true"
     style="display:none">
    <path
       style="fill:none;stroke:#000000;stroke-width:0.42422557px;stroke-linecap:butt;stroke-linejoin:miter;stroke-opacity:1;display:inline"
       d="m 50,130 c 0,30 80,70 170,70 90,0 170,-40 170,-70"
       id="path2987-2-4"
       inkscape:connector-curvature="0"
       sodipodi:nodetypes="csc" />
    <path
       sodipodi:nodetypes="csc"
       inkscape:connector-curvature="0"
       id="path3827-0"
       d="M 390,130 C 390,100 310,60 220,60 130,60 50,100 50,130"
       style="fill:none;stroke:#000000;stroke-width:0.42422557px;stroke-linecap:butt;stroke-linejoin:miter;stroke-opacity:1;display:inline" />
    <path
       sodipodi:nodetypes="csc"
       inkscape:connector-curvature="0"
       id="path3906"
       d="m 50,310 c 0,30 80,70 170,70 90,0 170,-40 170,-70"
       style="fill:none;stroke:#000000;stroke-width:0.42422557px;stroke-linecap:butt;stroke-linejoin:miter;stroke-opacity:1;display:inline" />
    <path
       style="fill:none;stroke:#000000;stroke-width:0.42422557px;stroke-linecap:butt;stroke-linejoin:miter;stroke-opacity:1;display:inline"
       d="m 390,310 c 0,-30 -80,-70 -170,-70 -90,0 -170,40 -170,70"
       id="path3908"
       inkscape:connector-curvature="0"
       sodipodi:nodetypes="csc" />
  </g>
  <g
     inkscape:groupmode="layer"
     id="layer20"
     inkscape:label="chacarera 4 - vuelta etalon"
     sodipodi:insensitive="true">
    <path
       sodipodi:type="arc"
       style="fill:none;stroke:#000000;stroke-opacity:0.23181817"
       id="path3986"
       sodipodi:cx="220"
       sodipodi:cy="220"
       sodipodi:rx="190"
       sodipodi:ry="190"
       d="m 410,220 a 190,190 0 1 1 -380,0 190,190 0 1 1 380,0 z" />
  </g>
  <g
     inkscape:groupmode="layer"
     id="layer21"
     inkscape:label="chacarera 4 - vuelta all"
     style="display:none">
    <path
       style="fill:none;stroke:#000000;stroke-width:1px;stroke-linecap:butt;stroke-linejoin:miter;stroke-opacity:1"
       d="m 50,310 c 76,130 274,132 340,0 30,-60 30,-120 0,-180 C 324,-2 116,-2 50,130 20,190 20,260 50,310 z"
       id="path3991"
       inkscape:connector-curvature="0"
       sodipodi:nodetypes="sssss" />
  </g>
  <g
     inkscape:groupmode="layer"
     id="layer22"
     inkscape:label="chacarera 4 - mediaVuelta#1"
     style="display:none">
    <path
       sodipodi:nodetypes="csc"
       inkscape:connector-curvature="0"
       id="pathL2R1"
       d="m 50,310 c 76,130 274,132 340,0 30,-60 30,-120 0,-180"
       style="fill:none;stroke:#000000;stroke-width:1px;stroke-linecap:butt;stroke-linejoin:miter;stroke-opacity:1" />
    <path
       style="fill:none;stroke:#000000;stroke-width:1px;stroke-linecap:butt;stroke-linejoin:miter;stroke-opacity:1"
       d="M 390,130 C 314,0 116,-2 50,130 20,190 20,250 50,310"
       id="pathR1L2"
       inkscape:connector-curvature="0"
       sodipodi:nodetypes="csc" />
  </g>
  <g
     inkscape:groupmode="layer"
     id="layer23"
     inkscape:label="chacarera 4 - mediaVuelta#2"
     sodipodi:insensitive="true"
     style="display:none">
    <path
       sodipodi:nodetypes="csc"
       inkscape:connector-curvature="0"
       id="pathR2L1"
       d="M 390,310 C 420,250 420,190 390,130 324,-2 116,-2 50,130"
       style="fill:none;stroke:#000000;stroke-width:1px;stroke-linecap:butt;stroke-linejoin:miter;stroke-opacity:1;display:inline" />
    <path
       style="fill:none;stroke:#000000;stroke-width:1px;stroke-linecap:butt;stroke-linejoin:miter;stroke-opacity:1;display:inline"
       d="m 50,130 c -30,60 -30,120 0,180 66,132 274,132 340,0"
       id="pathL1R2"
       inkscape:connector-curvature="0"
       sodipodi:nodetypes="csc" />
  </g>
  <g
     inkscape:groupmode="layer"
     id="layer16"
     inkscape:label="chacarera 4 - vuelta"
     style="display:none"
     sodipodi:insensitive="true">
    <path
       style="fill:none;stroke:#000000;stroke-width:1px;stroke-linecap:butt;stroke-linejoin:miter;stroke-opacity:1"
       d="m 50,130 c 0,30 80,70 170,70 90,0 170,-40 170,-70 0,-30 -80,-70 -170,-70 -90,0 -170,40 -170,70 z"
       id="path3911"
       inkscape:connector-curvature="0" />
    <path
       inkscape:connector-curvature="0"
       id="path3913"
       d="m 50,310 c 0,30 80,70 170,70 90,0 170,-40 170,-70 0,-30 -80,-70 -170,-70 -90,0 -170,40 -170,70 z"
       style="fill:none;stroke:#000000;stroke-width:1px;stroke-linecap:butt;stroke-linejoin:miter;stroke-opacity:1" />
    <path
       style="fill:none;stroke:#000000;stroke-width:0.63944221px;stroke-linecap:butt;stroke-linejoin:miter;stroke-opacity:1;display:inline"
       d="m 50,130 c 0,30 70,40 100,40 30,0 53,-15 53,-40 0,-16 -10,-25 -25,-25 -16,0 -25,10 -25,25 0,16 10,25 25,25 16,0 22,-5 32,-25"
       id="path3830-9"
       inkscape:connector-curvature="0"
       sodipodi:nodetypes="cssccsc" />
    <path
       sodipodi:nodetypes="cssccsc"
       inkscape:connector-curvature="0"
       id="path3934"
       d="m 390,130 c 0,-30 -70,-40 -100,-40 -30,0 -53,15 -53,40 0,16 10,25 25,25 16,0 25,-10 25,-25 0,-16 -10,-25 -25,-25 -16,0 -22,5 -32,25"
       style="fill:none;stroke:#000000;stroke-width:0.63944221px;stroke-linecap:butt;stroke-linejoin:miter;stroke-opacity:1;display:inline" />
    <path
       sodipodi:nodetypes="cssccsc"
       inkscape:connector-curvature="0"
       id="path3936"
       d="m 50,310 c 0,30 70,40 100,40 30,0 53,-15 53,-40 0,-16 -10,-25 -25,-25 -16,0 -25,10 -25,25 0,16 10,25 25,25 16,0 22,-5 32,-25"
       style="fill:none;stroke:#000000;stroke-width:0.63944221px;stroke-linecap:butt;stroke-linejoin:miter;stroke-opacity:1;display:inline" />
    <path
       style="fill:none;stroke:#000000;stroke-width:0.63944221px;stroke-linecap:butt;stroke-linejoin:miter;stroke-opacity:1;display:inline"
       d="m 390,310 c 0,-30 -70,-40 -100,-40 -30,0 -53,15 -53,40 0,16 10,25 25,25 16,0 25,-10 25,-25 0,-16 -10,-25 -25,-25 -16,0 -22,5 -32,25"
       id="path3938"
       inkscape:connector-curvature="0"
       sodipodi:nodetypes="cssccsc" />
  </g>
  <g
     inkscape:groupmode="layer"
     id="layer18"
     inkscape:label="chacarera 4 - giro"
     sodipodi:insensitive="true"
     style="display:none">
    <path
       style="fill:none;stroke:#000000;stroke-width:0.5970149px;stroke-linecap:butt;stroke-linejoin:miter;stroke-opacity:1;display:inline"
       d="m 50,130 c 0,35 25,60 60,60 35,0 60,-25 60,-60 0,-35 -25,-60 -60,-60 -35,0 -60,25 -60,60 z"
       id="path3766"
       inkscape:connector-curvature="0"
       sodipodi:nodetypes="sssss" />
    <path
       sodipodi:nodetypes="sssss"
       inkscape:connector-curvature="0"
       id="path3970"
       d="m 390,130 c 0,-35 -25,-60 -60,-60 -35,0 -60,25 -60,60 0,35 25,60 60,60 35,0 60,-25 60,-60 z"
       style="fill:none;stroke:#000000;stroke-width:0.5970149px;stroke-linecap:butt;stroke-linejoin:miter;stroke-opacity:1;display:inline" />
    <path
       sodipodi:nodetypes="sssss"
       inkscape:connector-curvature="0"
       id="path3972"
       d="m 50,310 c 0,35 25,60 60,60 35,0 60,-25 60,-60 0,-35 -25,-60 -60,-60 -35,0 -60,25 -60,60 z"
       style="fill:none;stroke:#000000;stroke-width:0.5970149px;stroke-linecap:butt;stroke-linejoin:miter;stroke-opacity:1;display:inline" />
    <path
       style="fill:none;stroke:#000000;stroke-width:0.5970149px;stroke-linecap:butt;stroke-linejoin:miter;stroke-opacity:1;display:inline"
       d="m 390,310 c 0,-35 -25,-60 -60,-60 -35,0 -60,25 -60,60 0,35 25,60 60,60 35,0 60,-25 60,-60 z"
       id="path3974"
       inkscape:connector-curvature="0"
       sodipodi:nodetypes="sssss" />
  </g>
  <g
     inkscape:groupmode="layer"
     id="layer19"
     inkscape:label="chacarera 4 - avanse"
     sodipodi:insensitive="true"
     style="display:none">
    <path
       style="fill:none;stroke:#000000;stroke-width:1px;stroke-linecap:butt;stroke-linejoin:miter;stroke-opacity:1"
       d="m 50,130 60,60 60,-60 -60,-60 z"
       id="path3977"
       inkscape:connector-curvature="0" />
    <path
       inkscape:connector-curvature="0"
       id="path3979"
       d="m 390,130 -60,-60 -60,60 60,60 z"
       style="fill:none;stroke:#000000;stroke-width:1px;stroke-linecap:butt;stroke-linejoin:miter;stroke-opacity:1" />
    <path
       inkscape:connector-curvature="0"
       id="path3981"
       d="m 50,310 60,60 60,-60 -60,-60 z"
       style="fill:none;stroke:#000000;stroke-width:1px;stroke-linecap:butt;stroke-linejoin:miter;stroke-opacity:1" />
    <path
       style="fill:none;stroke:#000000;stroke-width:1px;stroke-linecap:butt;stroke-linejoin:miter;stroke-opacity:1"
       d="m 390,310 -60,-60 -60,60 60,60 z"
       id="path3983"
       inkscape:connector-curvature="0" />
  </g>
  <g
     inkscape:groupmode="layer"
     id="layer17"
     inkscape:label="chacarera 4 - coronacion"
     style="display:none">
    <path
       style="fill:none;stroke:#000000;stroke-width:0.63745022px;stroke-linecap:butt;stroke-linejoin:miter;stroke-opacity:1;display:inline"
       d="m 50,130 c 0,25 70,40 100,40 30,0 55,-20 55,-40 0,-15 -10,-25 -25,-25 -15,0 -25,10 -25,25 0,15 10,25 25,25 15,0 25,-5 30,-20"
       id="path3830-1"
       inkscape:connector-curvature="0"
       sodipodi:nodetypes="cssccsc" />
    <path
       sodipodi:nodetypes="cssccsc"
       inkscape:connector-curvature="0"
       id="path3158"
       d="m 390,130 c 0,-25 -70,-40 -100,-40 -30,0 -55,20 -55,40 0,15 10,25 25,25 15,0 25,-10 25,-25 0,-15 -10,-25 -25,-25 -15,0 -25,5 -30,20"
       style="fill:none;stroke:#000000;stroke-width:0.63745022px;stroke-linecap:butt;stroke-linejoin:miter;stroke-opacity:1;display:inline" />
    <path
       sodipodi:nodetypes="cssccsc"
       inkscape:connector-curvature="0"
       id="path3160"
       d="m 50,310 c 0,25 70,40 100,40 30,0 55,-20 55,-40 0,-15 -10,-25 -25,-25 -15,0 -25,10 -25,25 0,15 10,25 25,25 15,0 25,-5 30,-20"
       style="fill:none;stroke:#000000;stroke-width:0.63745022px;stroke-linecap:butt;stroke-linejoin:miter;stroke-opacity:1;display:inline" />
    <path
       style="fill:none;stroke:#000000;stroke-width:0.63745022px;stroke-linecap:butt;stroke-linejoin:miter;stroke-opacity:1;display:inline"
       d="m 390,310 c 0,-25 -70,-40 -100,-40 -30,0 -55,20 -55,40 0,15 10,25 25,25 15,0 25,-10 25,-25 0,-15 -10,-25 -25,-25 -15,0 -25,5 -30,20"
       id="path3162"
       inkscape:connector-curvature="0"
       sodipodi:nodetypes="cssccsc" />
  </g>
  <g
     inkscape:groupmode="layer"
     id="layer3"
     inkscape:label="chacarera4 - cadena"
     style="display:none">
    <path
       style="fill:none;stroke:#000000;stroke-width:1px;stroke-linecap:butt;stroke-linejoin:miter;stroke-opacity:1"
       d="m 50,310 c 0,30 170,30 170,30 l 140,0 0,-240 -280,0 c 0,0 0,60 0,120 0,60 -30,90 -30,90"
       id="pathL2"
       inkscape:connector-curvature="0"
       sodipodi:nodetypes="cccccsc" />
    <path
       sodipodi:nodetypes="cccccsc"
       inkscape:connector-curvature="0"
       id="pathR1"
       d="m 390,130 c 0,-30 -170,-30 -170,-30 l -140,0 0,240 280,0 c 0,0 0,-60 0,-120 0,-60 30,-90 30,-90"
       style="fill:none;stroke:#000000;stroke-width:1px;stroke-linecap:butt;stroke-linejoin:miter;stroke-opacity:1" />
    <path
       sodipodi:nodetypes="cccccsc"
       inkscape:connector-curvature="0"
       id="pathL1"
       d="m 50,130 c 0,30 170,30 170,30 l 200,0 0,120 -400,0 c 0,0 0,0 0,-60 0,-60 30,-90 30,-90"
       style="fill:none;stroke:#000000;stroke-width:1px;stroke-linecap:butt;stroke-linejoin:miter;stroke-opacity:1" />
    <path
       style="fill:none;stroke:#000000;stroke-width:1px;stroke-linecap:butt;stroke-linejoin:miter;stroke-opacity:1"
       d="m 390,310 c 0,-30 -170,-30 -170,-30 l -200,0 0,-120 400,0 c 0,0 0,0 0,60 0,60 -30,90 -30,90"
       id="pathR2"
       inkscape:connector-curvature="0"
       sodipodi:nodetypes="cccccsc" />
    <path
       style="fill:none;stroke:#ff0000;stroke-width:1px;stroke-linecap:butt;stroke-linejoin:miter;stroke-opacity:1"
       d="m 50,310 340,0 0,-180 -340,0 z"
       id="pathEtalon"
       inkscape:connector-curvature="0"
       sodipodi:nodetypes="ccccc" />
  </g>
  <g
     inkscape:groupmode="layer"
     id="layer9"
     inkscape:label="esquina_remedio"
     style="display:none">
    <path
       style="fill:none;stroke:#000000;stroke-width:1px;stroke-linecap:butt;stroke-linejoin:miter;stroke-opacity:1"
       d="m 50,390 c 0,0 90,-70 90,-170 C 140,120 50,50 50,50"
       id="path3907"
       inkscape:connector-curvature="0"
       sodipodi:nodetypes="ccc" />
    <path
       sodipodi:nodetypes="ccc"
       inkscape:connector-curvature="0"
       id="path3097"
       d="m 50,50 c 0,0 70,90 170,90 100,0 170,-90 170,-90"
       style="fill:none;stroke:#000000;stroke-width:1px;stroke-linecap:butt;stroke-linejoin:miter;stroke-opacity:1" />
    <path
       sodipodi:nodetypes="ccc"
       inkscape:connector-curvature="0"
       id="path3099"
       d="m 390,50 c 0,0 -90,70 -90,170 0,100 90,170 90,170"
       style="fill:none;stroke:#000000;stroke-width:1px;stroke-linecap:butt;stroke-linejoin:miter;stroke-opacity:1" />
    <path
       style="fill:none;stroke:#000000;stroke-width:1px;stroke-linecap:butt;stroke-linejoin:miter;stroke-opacity:1"
       d="m 390,390 c 0,0 -70,-90 -170,-90 -100,0 -170,90 -170,90"
       id="path3101"
       inkscape:connector-curvature="0"
       sodipodi:nodetypes="ccc" />
  </g>
  <g
     inkscape:groupmode="layer"
     id="layer10"
     inkscape:label="esquina_escondido"
     style="display:none">
    <path
       style="fill:none;stroke:#000000;stroke-width:1px;stroke-linecap:butt;stroke-linejoin:miter;stroke-opacity:1"
       d="M 50,390 50,50"
       id="path3916"
       inkscape:connector-curvature="0" />
    <path
       style="fill:none;stroke:#000000;stroke-width:1px;stroke-linecap:butt;stroke-linejoin:miter;stroke-opacity:1"
       d="M 50,50 70,30 50,50"
       id="path3920"
       inkscape:connector-curvature="0" />
    <path
       style="fill:none;stroke:#000000;stroke-width:1px;stroke-linecap:butt;stroke-linejoin:miter;stroke-opacity:1"
       d="M 50,50 30,70 50,50"
       id="path3922"
       inkscape:connector-curvature="0" />
    <path
       inkscape:connector-curvature="0"
       id="path3012"
       d="m 50,50 340,0"
       style="fill:none;stroke:#000000;stroke-width:1px;stroke-linecap:butt;stroke-linejoin:miter;stroke-opacity:1" />
    <path
       inkscape:connector-curvature="0"
       id="path3014"
       d="M 390,50 410,70 390,50"
       style="fill:none;stroke:#000000;stroke-width:1px;stroke-linecap:butt;stroke-linejoin:miter;stroke-opacity:1" />
    <path
       inkscape:connector-curvature="0"
       id="path3016"
       d="M 390,50 370,30 390,50"
       style="fill:none;stroke:#000000;stroke-width:1px;stroke-linecap:butt;stroke-linejoin:miter;stroke-opacity:1" />
    <path
       inkscape:connector-curvature="0"
       id="path3026"
       d="m 390,50 0,340"
       style="fill:none;stroke:#000000;stroke-width:1px;stroke-linecap:butt;stroke-linejoin:miter;stroke-opacity:1" />
    <path
       inkscape:connector-curvature="0"
       id="path3028"
       d="m 390,390 -20,20 20,-20"
       style="fill:none;stroke:#000000;stroke-width:1px;stroke-linecap:butt;stroke-linejoin:miter;stroke-opacity:1" />
    <path
       inkscape:connector-curvature="0"
       id="path3030"
       d="m 390,390 20,-20 -20,20"
       style="fill:none;stroke:#000000;stroke-width:1px;stroke-linecap:butt;stroke-linejoin:miter;stroke-opacity:1" />
    <path
       style="fill:none;stroke:#000000;stroke-width:1px;stroke-linecap:butt;stroke-linejoin:miter;stroke-opacity:1"
       d="M 390,390 50,390"
       id="path3040"
       inkscape:connector-curvature="0" />
    <path
       style="fill:none;stroke:#000000;stroke-width:1px;stroke-linecap:butt;stroke-linejoin:miter;stroke-opacity:1"
       d="M 50,390 30,370 50,390"
       id="path3042"
       inkscape:connector-curvature="0" />
    <path
       style="fill:none;stroke:#000000;stroke-width:1px;stroke-linecap:butt;stroke-linejoin:miter;stroke-opacity:1"
       d="M 50,390 70,410 50,390"
       id="path3044"
       inkscape:connector-curvature="0" />
  </g>
  <g
     inkscape:groupmode="layer"
     id="layer7"
     inkscape:label="remedio - coronacion">
    <path
       style="fill:none;stroke:#000000;stroke-width:1px;stroke-linecap:butt;stroke-linejoin:miter;stroke-opacity:1"
       d="M 50,390 210,230"
       id="path3086"
       inkscape:connector-curvature="0"
       sodipodi:nodetypes="cc" />
    <path
       style="fill:none;stroke:#000000;stroke-width:1px;stroke-linecap:butt;stroke-linejoin:miter;stroke-opacity:1"
       d="M 390,50 230,210"
       id="path3088"
       inkscape:connector-curvature="0"
       sodipodi:nodetypes="cc" />
  </g>
  <g
     inkscape:groupmode="layer"
     id="layer2"
     inkscape:label="vuelta"
     style="display:none">
    <path
       sodipodi:nodetypes="csccc"
       inkscape:connector-curvature="0"
       id="path2987"
       d="m 50,390 c 30,30 160,0 250,-90 C 390,210 420,80 390,50 360,20 230,50 140,140 50,230 20,360 50,390 z"
       style="fill:none;stroke:#000000;stroke-width:0.63556314px;stroke-linecap:butt;stroke-linejoin:miter;stroke-opacity:1;display:inline" />
    <path
       style="fill:none;stroke:#000000;stroke-width:1px;stroke-linecap:butt;stroke-linejoin:miter;stroke-opacity:1"
       d="m 50,390 c 20,20 70,10 70,-30 0,-20 -20,-40 -40,-40 -40,0 -50,50 -30,70"
       id="path3082"
       inkscape:connector-curvature="0"
       sodipodi:nodetypes="cssc" />
    <path
       sodipodi:nodetypes="cssc"
       inkscape:connector-curvature="0"
       id="path3095"
       d="m 390,50 c -20,-20 -70,-10 -70,30 0,20 20,40 40,40 40,0 50,-50 30,-70"
       style="fill:none;stroke:#000000;stroke-width:1px;stroke-linecap:butt;stroke-linejoin:miter;stroke-opacity:1" />
  </g>
</svg>
