<?xml version="1.0" encoding="UTF-8" standalone="no"?>
<!-- Created with Inkscape (http://www.inkscape.org/) -->

<svg
   xmlns:dc="http://purl.org/dc/elements/1.1/"
   xmlns:cc="http://creativecommons.org/ns#"
   xmlns:rdf="http://www.w3.org/1999/02/22-rdf-syntax-ns#"
   xmlns:svg="http://www.w3.org/2000/svg"
   xmlns="http://www.w3.org/2000/svg"
   xmlns:sodipodi="http://sodipodi.sourceforge.net/DTD/sodipodi-0.dtd"
   xmlns:inkscape="http://www.inkscape.org/namespaces/inkscape"
   width="100"
   height="100"
   viewBox="0 0 100 100"
   id="svg3431"
   version="1.1"
   inkscape:version="0.91 r13725"
   sodipodi:docname="figures.svg">
  <defs
     id="defs3433">
    <marker
       inkscape:stockid="Arrow1Lend"
       orient="auto"
       refY="0.0"
       refX="0.0"
       id="Arrow1Lend"
       style="overflow:visible;"
       inkscape:isstock="true">
      <path
         id="path4359"
         d="M 0.0,0.0 L 5.0,-5.0 L -12.5,0.0 L 5.0,5.0 L 0.0,0.0 z "
         style="fill-rule:evenodd;stroke:#000000;stroke-width:1.0pt;"
         transform="scale(0.8) rotate(180) translate(12.5,0)" />
    </marker>
    <marker
       inkscape:stockid="Arrow1Lstart"
       orient="auto"
       refY="0.0"
       refX="0.0"
       id="Arrow1Lstart"
       style="overflow:visible"
       inkscape:isstock="true">
      <path
         id="path4356"
         d="M 0.0,0.0 L 5.0,-5.0 L -12.5,0.0 L 5.0,5.0 L 0.0,0.0 z "
         style="fill-rule:evenodd;stroke:#000000;stroke-width:1.0pt"
         transform="scale(0.8) translate(12.5,0)" />
    </marker>
  </defs>
  <sodipodi:namedview
     id="base"
     pagecolor="#ffffff"
     bordercolor="#666666"
     borderopacity="1.0"
     inkscape:pageopacity="0.0"
     inkscape:pageshadow="2"
     inkscape:zoom="7.9999996"
     inkscape:cx="20.395623"
     inkscape:cy="79.335512"
     inkscape:document-units="px"
     inkscape:current-layer="svg3431"
     showgrid="false"
     showguides="true"
     inkscape:window-width="1600"
     inkscape:window-height="837"
     inkscape:window-x="-8"
     inkscape:window-y="-8"
     inkscape:window-maximized="1"
     units="px">
    <inkscape:grid
       type="xygrid"
       id="grid3441" />
  </sodipodi:namedview>
  <metadata
     id="metadata3436">
    <rdf:RDF>
      <cc:Work
         rdf:about="">
        <dc:format>image/svg+xml</dc:format>
        <dc:type
           rdf:resource="http://purl.org/dc/dcmitype/StillImage" />
        <dc:title />
      </cc:Work>
    </rdf:RDF>
  </metadata>
  <g
     id="man"
     inkscape:transform-center-x="1.4142136"
     inkscape:transform-center-y="0.72855339"
     transform="translate(-28.707106,-9.292894)"
     display="none"
     style="display:none">
    <g
       id="g4765"
       class="bottom">
      <g
         id="g4819"
         class="leg leg--right">
        <ellipse
           transform="scale(1,-1)"
           ry="8.9999819"
           rx="5"
           cy="-23.445038"
           cx="39.16169"
           id="ellipse4342"
           style="fill:#af7d24;fill-opacity:1;stroke:#323232;stroke-width:1.5;stroke-miterlimit:4;stroke-dasharray:none;stroke-opacity:0.6714976" />
        <ellipse
           transform="scale(1,-1)"
           style="fill:#af7d24;fill-opacity:1;stroke:#323232;stroke-width:1.5;stroke-miterlimit:4;stroke-dasharray:none;stroke-opacity:0.6714976"
           id="path4313"
           cx="37.91169"
           cy="-32.173492"
           rx="5"
           ry="8.9999819" />
        <path
           style="fill:#4c4c4c;fill-opacity:1;fill-rule:evenodd;stroke:none;stroke-width:1px;stroke-linecap:butt;stroke-linejoin:miter;stroke-opacity:1"
           d="m 29.536688,31.673475 c -0.624682,-4.01411 1.77954,-12.31686 4,-13.99996 2.22046,-1.6831 10.0868,-1.4374 11.625,1.625 1.488908,2.9642 2.02346,9.27148 1,14.37496 -0.962799,3.92707 -16.000318,2.01411 -16.625,-2 z"
           id="path4315"
           inkscape:connector-curvature="0"
           sodipodi:nodetypes="zzscz" />
      </g>
      <g
         id="g4835"
         class="leg leg--left">
        <ellipse
           style="fill:#af7d24;fill-opacity:1;stroke:#323232;stroke-width:1.5;stroke-miterlimit:4;stroke-dasharray:none;stroke-opacity:0.6714976"
           id="ellipse4826"
           cx="-62.96418"
           cy="-23.445038"
           rx="5"
           ry="8.9999819"
           transform="scale(-1,-1)" />
        <ellipse
           ry="8.9999819"
           rx="5"
           cy="-32.173492"
           cx="-64.21418"
           id="ellipse4828"
           style="fill:#af7d24;fill-opacity:1;stroke:#323232;stroke-width:1.5;stroke-miterlimit:4;stroke-dasharray:none;stroke-opacity:0.6714976"
           transform="scale(-1,-1)" />
        <path
           sodipodi:nodetypes="zzscz"
           inkscape:connector-curvature="0"
           id="path4830"
           d="m 72.589182,31.673475 c 0.624682,-4.01411 -1.77954,-12.31686 -4,-13.99996 -2.22046,-1.6831 -10.0868,-1.4374 -11.625,1.625 -1.488908,2.9642 -2.02346,9.27148 -1,14.37496 0.962799,3.92707 16.000318,2.01411 16.625,-2 z"
           style="fill:#4c4c4c;fill-opacity:1;fill-rule:evenodd;stroke:none;stroke-width:1px;stroke-linecap:butt;stroke-linejoin:miter;stroke-opacity:1" />
      </g>
    </g>
    <g
       id="g4779"
       class="top">
      <ellipse
         transform="scale(1,-1)"
         ry="12.5"
         rx="30"
         cy="-25.947866"
         cx="51.022186"
         id="path4247"
         style="fill:#808080;stroke:none;stroke-opacity:0.6714976" />
      <g
         class="hands hands--castanetas"
         id="g4757"
         display="none"
         style="display:none">
        <g
           id="g4749"
           class="hand hand--right">
          <path
             sodipodi:nodetypes="csszzcc"
             inkscape:connector-curvature="0"
             id="path4307"
             d="m 5.161688,51.807444 c 0,0 -2.601049,2.2687 -2.375,5 0.313568,3.7887 3.172307,6.1814 4.125,5 1.620378,-2.0095 0.716614,-2.4726 1.25,-3.625 0.533386,-1.1525 2.132779,1.8318 2.625,0.375 0.492221,-1.4569 -1.625,-6.75 -1.625,-6.75 z"
             style="fill:#dab272;fill-opacity:1;fill-rule:evenodd;stroke:none;stroke-width:1px;stroke-linecap:butt;stroke-linejoin:miter;stroke-opacity:1" />
          <path
             sodipodi:nodetypes="cccczcc"
             inkscape:connector-curvature="0"
             id="path4249"
             d="m 24.272186,21.697944 c 0,0 -7.485498,2.2345 -13.25,6.75 -4.235498,5.4845 -4.235498,15.4845 -6.75,23.75 l 6.25,1.5 c 0,0 2.023518,-11.1952 5.5,-15.25 3.476482,-4.0548 13.5,-6.25 13.5,-6.25 z"
             style="fill:#808080;fill-rule:evenodd;stroke:none;stroke-width:1px;stroke-linecap:butt;stroke-linejoin:miter;stroke-opacity:0.6714976" />
        </g>
        <g
           id="g4753"
           class="hand hand--left">
          <path
             style="fill:#dab272;fill-opacity:1;fill-rule:evenodd;stroke:none;stroke-width:1px;stroke-linecap:butt;stroke-linejoin:miter;stroke-opacity:1"
             d="m 96.883258,51.807444 c 0,0 2.60105,2.2687 2.375,5 -0.31356,3.7887 -3.1723,6.1814 -4.125,5 -1.620374,-2.0095 -0.71661,-2.4726 -1.249996,-3.625 -0.533386,-1.1525 -2.132779,1.8318 -2.625,0.375 -0.492221,-1.4569 1.625,-6.75 1.625,-6.75 z"
             id="path4309"
             inkscape:connector-curvature="0"
             sodipodi:nodetypes="csszzcc" />
          <path
             style="fill:#808080;fill-rule:evenodd;stroke:none;stroke-width:1px;stroke-linecap:butt;stroke-linejoin:miter;stroke-opacity:0.6714976"
             d="m 77.772764,21.697944 c 0,0 7.485498,2.2345 13.25,6.75 4.235494,5.4845 4.235494,15.4845 6.750004,23.75 l -6.250004,1.5 c 0,0 -2.023518,-11.1952 -5.5,-15.25 -3.476482,-4.0548 -13.5,-6.25 -13.5,-6.25 z"
             id="path4311"
             inkscape:connector-curvature="0"
             sodipodi:nodetypes="cccczcc" />
        </g>
      </g>
      <g
         id="g4252"
         class="hands hands--down"
         display="none"
         style="display:none">
        <g
           class="hand hand--left"
           id="g4260">
          <path
             sodipodi:nodetypes="csszzcc"
             inkscape:connector-curvature="0"
             id="path4262"
             d="m 87.148425,36.304842 c 0,0 1.628778,2.003535 1.402728,4.734835 -0.31356,3.7887 -3.097129,4.720632 -3.683058,3.320621 -1.073219,-2.56434 -0.539833,-1.41194 -1.073219,-2.56434 -0.533386,-1.1525 -1.160508,2.715684 -1.652729,1.258884 -0.492221,-1.4569 1.801777,-6.131282 1.801777,-6.131282 z"
             style="fill:#dab272;fill-opacity:1;fill-rule:evenodd;stroke:none;stroke-width:1px;stroke-linecap:butt;stroke-linejoin:miter;stroke-opacity:1" />
          <path
             sodipodi:nodetypes="cccczcc"
             inkscape:connector-curvature="0"
             id="path4264"
             d="m 77.242436,21.697944 c 0,0 2.800915,-0.682315 8.565417,3.833185 4.235494,5.4845 2.556115,7.264382 2.949305,13.143398 l -6.250003,0.174174 c 0,0 1.070074,-1.737647 -0.903806,-4.55501 -1.97388,-2.817363 -9.610913,-2.095747 -9.610913,-2.095747 z"
             style="fill:#808080;fill-rule:evenodd;stroke:none;stroke-width:1px;stroke-linecap:butt;stroke-linejoin:miter;stroke-opacity:0.6714976" />
        </g>
        <g
           id="g3412"
           class="hand hand--right">
          <path
             style="fill:#dab272;fill-opacity:1;fill-rule:evenodd;stroke:none;stroke-width:1px;stroke-linecap:butt;stroke-linejoin:miter;stroke-opacity:1"
             d="m 14.585385,36.304842 c 0,0 -1.628778,2.003535 -1.402728,4.734835 0.31356,3.7887 3.097129,4.720632 3.683058,3.320621 1.073219,-2.56434 0.539833,-1.41194 1.073219,-2.56434 0.533386,-1.1525 1.160508,2.715684 1.652729,1.258884 0.492221,-1.4569 -1.801777,-6.131282 -1.801777,-6.131282 z"
             id="path4202"
             inkscape:connector-curvature="0"
             sodipodi:nodetypes="csszzcc" />
          <path
             style="fill:#808080;fill-rule:evenodd;stroke:none;stroke-width:1px;stroke-linecap:butt;stroke-linejoin:miter;stroke-opacity:0.6714976"
             d="m 24.491374,21.697944 c 0,0 -2.800915,-0.682315 -8.565417,3.833185 -4.235494,5.4845 -2.556115,7.264382 -2.949305,13.143398 l 6.250003,0.174174 c 0,0 -1.070074,-1.737647 0.903806,-4.55501 1.97388,-2.817363 9.610913,-2.095747 9.610913,-2.095747 z"
             id="path4204"
             inkscape:connector-curvature="0"
             sodipodi:nodetypes="cccczcc" />
        </g>
      </g>
      <g
         class="hands hands--panuelo"
         id="g4206">
        <g
           id="g4208"
           class="hand hand--left">
          <path
             style="fill:#dab272;fill-opacity:1;fill-rule:evenodd;stroke:none;stroke-width:1px;stroke-linecap:butt;stroke-linejoin:miter;stroke-opacity:1"
             d="m 87.148425,36.304842 c 0,0 1.628778,2.003535 1.402728,4.734835 -0.31356,3.7887 -3.097129,4.720632 -3.683058,3.320621 -1.073219,-2.56434 -0.539833,-1.41194 -1.073219,-2.56434 -0.533386,-1.1525 -1.160508,2.715684 -1.652729,1.258884 -0.492221,-1.4569 1.801777,-6.131282 1.801777,-6.131282 z"
             id="path4210"
             inkscape:connector-curvature="0"
             sodipodi:nodetypes="csszzcc" />
          <path
             style="fill:#808080;fill-rule:evenodd;stroke:none;stroke-width:1px;stroke-linecap:butt;stroke-linejoin:miter;stroke-opacity:0.6714976"
             d="m 77.242436,21.697944 c 0,0 2.800915,-0.682315 8.565417,3.833185 4.235494,5.4845 2.556115,7.264382 2.949305,13.143398 l -6.250003,0.174174 c 0,0 1.070074,-1.737647 -0.903806,-4.55501 -1.97388,-2.817363 -9.610913,-2.095747 -9.610913,-2.095747 z"
             id="path4212"
             inkscape:connector-curvature="0"
             sodipodi:nodetypes="cccczcc" />
        </g>
        <g
           class="hand hand--right"
           id="g4220">
          <path
             style="fill:#dab272;fill-opacity:1;fill-rule:evenodd;stroke:none;stroke-width:1px;stroke-linecap:butt;stroke-linejoin:miter;stroke-opacity:1"
             d="m -21.292969,42.513672 -2.251953,0 c 0,0 -2.601049,2.2687 -2.375,5 0.282247,3.410264 2.564312,5.539883 3.72461,5.099609 0.0048,-1.960315 -0.0073,-3.953878 0.1875,-5.734375 0.186224,-1.702089 0.458877,-2.997206 0.714843,-4.365234 z"
             id="path4239"
             transform="translate(28.707106,9.292894)"
             inkscape:connector-curvature="0" />
          <path
             style="opacity:0.71300001;fill:#a8f1ff;fill-opacity:1;fill-rule:evenodd;stroke:#787878;stroke-width:1;stroke-linecap:butt;stroke-linejoin:miter;stroke-miterlimit:4;stroke-dasharray:none;stroke-opacity:1"
             d="m 12.532038,54.403728 c -0.883884,1.767767 -2.032932,3.005204 -3.535534,3.358757 -1.502602,0.353553 -4.2426413,-0.08839 -5.4800783,-2.563262 -1.237437,-2.474874 -2.0329324,-6.828428 -0.4419412,-9.126525 0.57364,-0.82859 2.7796712,-3.824694 3.0935915,-5.214912 0.6187187,-2.740039 0.2833754,-6.342632 -3.6239224,-6.629127 -3.8876798,-0.285056 -5.8336307,2.298097 -5.8336307,2.298097 0,0 3.15843284,-0.76078 4.772971,0.353554 1.5345426,1.059122 2.5632619,3.18198 -1.06066012,4.684582 -3.62392298,1.502602 -6.18718478,6.298098 -6.18718458,9.656856 2e-7,4.951755 2.9168153,7.336232 4.5078058,8.750446 1.24119764,1.103287 6.717515,1.414213 8.662058,0.176777 1.944544,-1.237437 5.038136,-4.33103 5.126525,-5.745243 z"
             id="path4233"
             inkscape:connector-curvature="0"
             sodipodi:nodetypes="cssssscsssssc" />
          <path
             style="fill:#dab272;fill-opacity:1;fill-rule:evenodd;stroke:none;stroke-width:1px;stroke-linecap:butt;stroke-linejoin:miter;stroke-opacity:1"
             d="m -21.469746,42.513672 c -0.255966,1.368028 -0.528619,2.663145 -0.714843,4.365234 -0.194803,1.780497 -0.0059,3.77406 -0.01072,5.734375 0.128757,-0.04886 0.30523,0.01839 0.40039,-0.09961 1.620378,-2.0095 0.716614,-2.4726 1.25,-3.625 0.533386,-1.1525 2.132779,1.8318 2.625,0.375 0.492221,-1.4569 -1.625,-6.75 -1.625,-6.75 z"
             id="path4222"
             transform="translate(28.707106,9.292894)"
             inkscape:connector-curvature="0"
             sodipodi:nodetypes="cscccccc" />
          <path
             style="fill:#808080;fill-rule:evenodd;stroke:none;stroke-width:1px;stroke-linecap:butt;stroke-linejoin:miter;stroke-opacity:0.6714976"
             d="m 24.272186,21.697944 c 0,0 -7.485498,2.2345 -13.25,6.75 -4.235498,5.4845 -4.235498,15.4845 -6.75,23.75 l 6.25,1.5 c 0,0 2.023518,-11.1952 5.5,-15.25 3.476482,-4.0548 13.5,-6.25 13.5,-6.25 z"
             id="path4224"
             inkscape:connector-curvature="0"
             sodipodi:nodetypes="cccczcc" />
        </g>
      </g>
      <g
         class="head"
         id="g4775">
        <circle
           style="fill:#000000;stroke:none;stroke-opacity:1"
           id="path3443"
           cx="51.022186"
           cy="-28.447866"
           r="20"
           transform="scale(1,-1)" />
        <circle
           style="fill:#000000;stroke:#0094ff;stroke-width:1.5;stroke-miterlimit:4;stroke-dasharray:none;stroke-opacity:0.6714976"
           id="path3445"
           cx="51.022186"
           cy="-28.447866"
           r="10"
           transform="scale(1,-1)" />
      </g>
    </g>
    <rect
       ry="0"
       y="-10.250008"
       x="-6.625"
       height="75"
       width="115.62501"
       style="opacity:0.71300001;fill:none;fill-opacity:0.72068966;stroke:none;stroke-width:1;stroke-miterlimit:4;stroke-dasharray:none;stroke-opacity:0.37241378"
       id="rect4302" />
  </g>
  <g
     transform="translate(-28.707106,-9.292894)"
     inkscape:transform-center-y="0.72855339"
     inkscape:transform-center-x="1.4142136"
     id="woman">
    <g
       id="g4717"
       class="bottom">
      <g
         id="g4849"
         class="leg leg--left">
        <ellipse
           style="opacity:0.85;fill:#ff00e8;fill-opacity:1;stroke:#323232;stroke-width:1.29150641;stroke-miterlimit:4;stroke-dasharray:none;stroke-opacity:0.6714976"
           id="ellipse4846"
           cx="-60.751369"
           cy="-30.482916"
           rx="3.9110041"
           ry="12"
           transform="scale(-1,-1)" />
      </g>
      <g
         id="g4841"
         class="leg leg--right">
        <ellipse
           transform="scale(1,-1)"
           ry="12"
           rx="3.9110041"
           cy="-30.482916"
           cx="41.104931"
           id="ellipse4669"
           style="opacity:0.85;fill:#ff00e8;fill-opacity:1;stroke:#323232;stroke-width:1.29150641;stroke-miterlimit:4;stroke-dasharray:none;stroke-opacity:0.6714976" />
      </g>
      <circle
         transform="scale(1,-1)"
         r="25"
         cy="-28.447866"
         cx="51.022186"
         id="circle4715"
         style="fill:#383fb8;fill-opacity:1;stroke:none;stroke-width:1.5;stroke-miterlimit:4;stroke-dasharray:none;stroke-opacity:0.6714976" />
    </g>
    <g
       id="g4726"
       class="top">
      <ellipse
         cx="51.022186"
         cy="-26.654974"
         rx="24.5"
         ry="11.792893"
         style="fill:#3a96c3;fill-opacity:1;stroke:none;stroke-opacity:0.6714976"
         id="ellipse4681"
         transform="scale(1,-1)" />
      <g
         id="g4745"
         class="head">
        <circle
           transform="scale(1,-1)"
           r="12"
           cy="-28.447866"
           cx="51.022186"
           id="circle4691"
           style="fill:#000000;fill-opacity:1;stroke:none;stroke-width:1.5;stroke-miterlimit:4;stroke-dasharray:none;stroke-opacity:0.6714976" />
        <path
           style="fill:#000000;fill-opacity:1;fill-rule:evenodd;stroke:none;stroke-width:1px;stroke-linecap:butt;stroke-linejoin:miter;stroke-opacity:1"
           d="m 47.091882,21.081323 c 1.046336,-4.185995 1.757465,-4.938483 0.795495,-5.038136 -5.122111,-0.530609 -10.341436,-2.916815 -3.977475,-4.684582 6.363961,-1.7677675 11.736542,1.79651 11.932427,2.032932 -1.324526,0.223183 -7.821029,-1.497671 -4.095274,0.485216 1.149049,0.22097 5.579189,-0.238357 1.866879,3.827507 -3.712311,4.065864 -6.522052,3.377063 -6.522052,3.377063 z"
           id="path4695"
           inkscape:connector-curvature="0"
           sodipodi:nodetypes="cssccsc" />
      </g>
      <g
         id="g4737"
         class="hands hands--castanetas"
         display="none"
         style="display:none">
        <g
           id="g4697"
           class="hand hand--left">
          <path
             sodipodi:nodetypes="csszzcccc"
             inkscape:connector-curvature="0"
             id="path4685"
             d="m 92.883258,51.807444 c 0,0 2.60105,2.2687 2.375,5 -0.31356,3.7887 -3.1723,6.1814 -4.125,5 -1.620374,-2.0095 -0.71661,-2.4726 -1.249996,-3.625 -0.533386,-1.1525 -2.132779,1.8318 -2.625,0.375 -0.492221,-1.4569 1.625,-6.75 1.625,-6.75 l -3.312502,-9.5625 4.781249,-1.21875 z"
             style="fill:#dab272;fill-opacity:1;fill-rule:evenodd;stroke:none;stroke-width:1px;stroke-linecap:butt;stroke-linejoin:miter;stroke-opacity:1" />
          <path
             sodipodi:nodetypes="czzzzcc"
             inkscape:connector-curvature="0"
             id="path4687"
             d="m 72.272764,21.197944 c 0,0 10.000636,5.580516 14.5,10.75 4.499364,5.169484 5.180249,7.99225 4.937504,10.375 -0.242745,2.38275 -4.057489,3.213195 -6.375004,1.9375 -2.317515,-1.275695 0.101482,-1.9452 -3.375,-6 -3.476482,-4.0548 -13.4375,-6.0625 -13.4375,-6.0625 z"
             style="fill:#3a96c3;fill-opacity:1;fill-rule:evenodd;stroke:none;stroke-width:1px;stroke-linecap:butt;stroke-linejoin:miter;stroke-opacity:0.6714976" />
        </g>
        <g
           id="g4271"
           class="hand hand--right">
          <path
             style="fill:#dab272;fill-opacity:1;fill-rule:evenodd;stroke:none;stroke-width:1px;stroke-linecap:butt;stroke-linejoin:miter;stroke-opacity:1"
             d="m 9.286692,51.807444 c 0,0 -2.60105,2.2687 -2.375,5 0.31356,3.7887 3.1723,6.1814 4.125,5 1.620374,-2.0095 0.71661,-2.4726 1.249996,-3.625 0.533386,-1.1525 2.132779,1.8318 2.625,0.375 0.492221,-1.4569 -1.625,-6.75 -1.625,-6.75 l 3.312502,-9.5625 -4.781249,-1.21875 z"
             id="path4703"
             inkscape:connector-curvature="0"
             sodipodi:nodetypes="csszzcccc" />
          <path
             style="fill:#3a96c3;fill-opacity:1;fill-rule:evenodd;stroke:none;stroke-width:1px;stroke-linecap:butt;stroke-linejoin:miter;stroke-opacity:0.6714976"
             d="m 29.897186,21.197944 c 0,0 -10.000636,5.580516 -14.5,10.75 -4.499364,5.169484 -5.180249,7.99225 -4.937504,10.375 0.242745,2.38275 4.057489,3.213195 6.375004,1.9375 2.317515,-1.275695 -0.101482,-1.9452 3.375,-6 3.476482,-4.0548 13.4375,-6.0625 13.4375,-6.0625 z"
             id="path4705"
             inkscape:connector-curvature="0"
             sodipodi:nodetypes="czzzzcc" />
        </g>
      </g>
      <g
         class="hands hands--down"
         id="g4186"
         display="none"
         style="display:none">
        <g
           id="g4188"
           class="hand hand--left">
          <path
             style="fill:#dab272;fill-opacity:1;fill-rule:evenodd;stroke:none;stroke-width:1px;stroke-linecap:butt;stroke-linejoin:miter;stroke-opacity:1"
             d="m 80.453433,32.185231 c 0,0 2.247496,1.384816 2.021446,4.116116 -0.31356,3.7887 -1.050979,6.1814 -2.003679,5 -1.620374,-2.0095 -0.893387,-1.765493 -1.426773,-2.917893 -0.533386,-1.1525 -2.132779,1.8318 -2.625,0.375 -0.492221,-1.4569 2.862437,-5.15901 2.862437,-5.15901 z"
             id="path4190"
             inkscape:connector-curvature="0"
             sodipodi:nodetypes="csszzcc" />
          <path
             style="fill:#3a96c3;fill-opacity:1;fill-rule:evenodd;stroke:none;stroke-width:1px;stroke-linecap:butt;stroke-linejoin:miter;stroke-opacity:0.6714976"
             d="m 70.272764,21.197944 c 0,0 4.167005,-0.960222 8.666369,4.209262 4.499364,5.169484 3.412482,6.047707 3.169737,8.430457 -0.242745,2.38275 -3.499081,4.142422 -4.96079,1.9375 0,0 -0.517237,-3.094249 -3.021447,-4.055457 -2.50421,-0.961208 -7.603869,0.478238 -7.603869,0.478238 z"
             id="path4192"
             inkscape:connector-curvature="0"
             sodipodi:nodetypes="czzszcc" />
        </g>
        <g
           id="g4308"
           class="hand hand--right">
          <path
             sodipodi:nodetypes="csszzcc"
             inkscape:connector-curvature="0"
             id="path4219"
             d="m 21.444087,32.185231 c 0,0 -2.247496,1.384816 -2.021446,4.116116 0.31356,3.7887 1.050979,6.1814 2.003679,5 1.620374,-2.0095 0.893387,-1.765493 1.426773,-2.917893 0.533386,-1.1525 2.132779,1.8318 2.625,0.375 0.492221,-1.4569 -2.862437,-5.15901 -2.862437,-5.15901 z"
             style="fill:#dab272;fill-opacity:1;fill-rule:evenodd;stroke:none;stroke-width:1px;stroke-linecap:butt;stroke-linejoin:miter;stroke-opacity:1" />
          <path
             sodipodi:nodetypes="czzszcc"
             inkscape:connector-curvature="0"
             id="path4221"
             d="m 31.624756,21.197944 c 0,0 -4.167005,-0.960222 -8.666369,4.209262 -4.499364,5.169484 -3.412482,6.047707 -3.169737,8.430457 0.242745,2.38275 3.499081,4.142422 4.96079,1.9375 0,0 0.517237,-3.094249 3.021447,-4.055457 2.50421,-0.961208 7.603869,0.478238 7.603869,0.478238 z"
             style="fill:#3a96c3;fill-opacity:1;fill-rule:evenodd;stroke:none;stroke-width:1px;stroke-linecap:butt;stroke-linejoin:miter;stroke-opacity:0.6714976" />
        </g>
      </g>
      <g
         id="g4254"
         class="hands hands--panuelo">
        <g
           class="hand hand--left"
           id="g4256">
          <path
             sodipodi:nodetypes="csszzcc"
             inkscape:connector-curvature="0"
             id="path4258"
             d="m 80.453433,32.185231 c 0,0 2.247496,1.384816 2.021446,4.116116 -0.31356,3.7887 -1.050979,6.1814 -2.003679,5 -1.620374,-2.0095 -0.893387,-1.765493 -1.426773,-2.917893 -0.533386,-1.1525 -2.132779,1.8318 -2.625,0.375 -0.492221,-1.4569 2.862437,-5.15901 2.862437,-5.15901 z"
             style="fill:#dab272;fill-opacity:1;fill-rule:evenodd;stroke:none;stroke-width:1px;stroke-linecap:butt;stroke-linejoin:miter;stroke-opacity:1" />
          <path
             sodipodi:nodetypes="czzszcc"
             inkscape:connector-curvature="0"
             id="path4260"
             d="m 70.272764,21.197944 c 0,0 4.167005,-0.960222 8.666369,4.209262 4.499364,5.169484 3.412482,6.047707 3.169737,8.430457 -0.242745,2.38275 -3.499081,4.142422 -4.96079,1.9375 0,0 -0.517237,-3.094249 -3.021447,-4.055457 -2.50421,-0.961208 -7.603869,0.478238 -7.603869,0.478238 z"
             style="fill:#3a96c3;fill-opacity:1;fill-rule:evenodd;stroke:none;stroke-width:1px;stroke-linecap:butt;stroke-linejoin:miter;stroke-opacity:0.6714976" />
        </g>
        <g
           class="hand hand--right"
           id="g4275">
          <path
             style="fill:#dab272;fill-opacity:1;fill-rule:evenodd;stroke:none;stroke-width:1px;stroke-linecap:butt;stroke-linejoin:miter;stroke-opacity:1"
             d="M -14.478516 32.347656 L -16.888672 31.732422 L -19.419922 42.513672 C -19.419922 42.513672 -22.020972 44.782372 -21.794922 47.513672 C -21.520341 50.831392 -19.356978 52.924543 -18.167969 52.638672 C -18.174942 52.540176 -18.190959 52.475999 -18.197266 52.376953 C -18.311792 50.578375 -18.31258 48.700665 -18.03125 47.144531 C -17.74992 45.588397 -17.354266 43.159893 -16.785156 40.490234 C -16.216046 37.820576 -15.473857 34.9089 -14.496094 32.382812 C -14.496094 32.382812 -14.478521 32.347657 -14.478516 32.347656 z "
             id="path4292"
             transform="translate(28.707106,9.292894)" />
          <path
             style="fill:#ffffff;fill-opacity:0.72068966;fill-rule:evenodd;stroke:#000000;stroke-width:1px;stroke-linecap:butt;stroke-linejoin:miter;stroke-opacity:0.37241378"
             d="m 15.821515,51.121242 c 0,0 2.828427,0.53033 3.005204,2.828427 0.176777,2.298097 0,5.303301 -3.712311,6.363962 -3.774059,1.078302 -8.3085053,1.944543 -12.5511463,-0.530331 -4.24264,-2.474873 -7.1594552,-6.477707 -7.1594556,-9.545941 -1.1871744,-9.038563 11.7934361,-8.178434 12.1092036,-12.9047 0,-4.949747 -3.5355334,-5.92202 -6.1871844,-6.275573 -2.651651,-0.353553 0.972272,-0.795495 4.596194,-0.08839 3.623923,0.707106 4.8948057,1.965412 5.6568547,3.889087 0.685471,1.730366 1.325825,5.038136 0,6.363961 -2.5769415,2.576941 -6.2755727,5.126525 -6.0987963,8.662059 0.1680762,3.361528 0.9722716,6.187185 4.1542526,7.601398 3.1819807,1.414214 6.8942917,0.265165 6.8942917,-2.209709 0,-2.474874 -0.707107,-4.15425 -0.707107,-4.15425 z"
             id="path4287"
             inkscape:connector-curvature="0"
             sodipodi:nodetypes="csssccsssssssc" />
          <path
             style="fill:#dab272;fill-opacity:1;fill-rule:evenodd;stroke:none;stroke-width:1px;stroke-linecap:butt;stroke-linejoin:miter;stroke-opacity:1"
             d="m -14.478516,32.347656 -0.194355,0.03516 c -0.977763,2.526088 -1.719952,5.437764 -2.289062,8.107422 -0.56911,2.669659 -0.964764,5.098163 -1.246094,6.654297 -0.28133,1.556134 -0.103765,3.433844 0.01076,5.232422 0.0063,0.09905 0.02232,0.163223 0.0293,0.261719 0.168791,-0.04058 0.379615,0.02186 0.498047,-0.125 1.620374,-2.0095 0.716614,-2.4726 1.25,-3.625 0.533386,-1.1525 2.132779,1.8318 2.625,0.375 0.492221,-1.4569 -1.625,-6.75 -1.625,-6.75 l 3.3125,-9.5625 z"
             id="path4277"
             transform="translate(28.707106,9.292894)"
             inkscape:connector-curvature="0"
             sodipodi:nodetypes="ccsssccccccc" />
          <path
             sodipodi:nodetypes="czzzzcc"
             inkscape:connector-curvature="0"
             id="path4279"
             d="m 29.897186,21.197944 c 0,0 -10.000636,5.580516 -14.5,10.75 -4.499364,5.169484 -5.180249,7.99225 -4.937504,10.375 0.242745,2.38275 4.057489,3.213195 6.375004,1.9375 2.317515,-1.275695 -0.101482,-1.9452 3.375,-6 3.476482,-4.0548 13.4375,-6.0625 13.4375,-6.0625 z"
             style="fill:#3a96c3;fill-opacity:1;fill-rule:evenodd;stroke:none;stroke-width:1px;stroke-linecap:butt;stroke-linejoin:miter;stroke-opacity:0.6714976" />
        </g>
      </g>
    </g>
    <rect
       style="opacity:0.71300001;fill:none;fill-opacity:0.72068966;stroke:none;stroke-width:1;stroke-miterlimit:4;stroke-dasharray:none;stroke-opacity:0.37241378"
       width="115.62501"
       height="75"
       x="-6.625"
       y="-10.250008"
       ry="0"
       id="rect4304" />
  </g>
</svg>
