<?xml version="1.0" encoding="UTF-8" standalone="no"?>
<svg
   xmlns:svg="http://www.w3.org/2000/svg"
   xmlns="http://www.w3.org/2000/svg"
   version="1.1"
   id="svg2"
   viewBox="0 0 180 45.000001"
   height="45"
   width="180">
  <g
     transform="translate(0,-1007.3622)"
     id="layer1">
    <text
       id="text3347"
       y="1043.1698"
       x="8.1317282"
       style="font-style:normal;font-weight:normal;font-size:45px;line-height:125%;font-family:sans-serif;letter-spacing:0px;word-spacing:0px;fill:#000000;fill-opacity:1;stroke:none;stroke-width:1px;stroke-linecap:butt;stroke-linejoin:miter;stroke-opacity:1"
       xml:space="preserve"><tspan
         y="1043.1698"
         x="8.1317282"
         id="tspan3349"></tspan></text>
    <g
       id="text3351"
       style="font-style:normal;font-variant:normal;font-weight:normal;font-stretch:normal;font-size:45px;line-height:125%;font-family:Negotiate;-inkscape-font-specification:Negotiate;letter-spacing:0px;word-spacing:0px;fill:#0094ff;fill-opacity:1;stroke:none;stroke-width:1px;stroke-linecap:butt;stroke-linejoin:miter;stroke-opacity:1">
      <path
         id="path4172"
         style=""
         d="m 5.817767,1027.439 2.565,0 1.44,19.89 q 0,0.765 -0.09,1.44 -0.09,0.675 -0.405,1.17 -0.27,0.54 -0.81,0.81 -0.54,0.315 -1.44,0.315 -0.855,0 -1.395,-0.315 -0.54,-0.27 -0.81,-0.81 -0.27,-0.495 -0.36,-1.17 -0.09,-0.675 -0.09,-1.44 l 1.395,-19.89 z m -1.35,-6.255 q 0,-1.62 0.495,-2.07 0.495,-0.45 2.115,-0.45 1.62,0 2.115,0.45 0.495,0.45 0.495,2.07 0,1.575 -0.495,2.07 -0.495,0.45 -2.115,0.45 -1.62,0 -2.115,-0.45 -0.495,-0.495 -0.495,-2.07 z" />
      <path
         id="path4174"
         style=""
         d="m 38.817533,1047.059 -5.715,0 -1.98,-6.435 -11.025,0 -1.89,6.435 -4.995,0 10.08,-31.95 5.13,0 10.395,31.95 z m -17.685,-10.17 8.91,0 -4.5,-14.13 -4.41,14.13 z" />
      <path
         id="path4176"
         style="fill:#939393;fill-opacity:1"
         d="m 55.040736,1029.599 q -1.665,-1.53 -3.96,-1.53 -1.125,0 -2.07,0.36 -0.9,0.36 -1.575,1.26 -0.63,0.855 -0.99,2.295 -0.36,1.44 -0.36,3.6 0,4.275 1.35,6.165 1.395,1.89 3.51,1.89 2.565,0 4.095,-1.665 l 0,-12.375 z m 4.905,17.46 -4.5,0 -0.09,-2.43 q -0.855,1.305 -2.565,2.07 -1.665,0.72 -3.69,0.72 -1.71,0 -3.15,-0.63 -1.44,-0.63 -2.52,-2.025 -1.035,-1.44 -1.665,-3.69 -0.585,-2.25 -0.585,-5.445 0,-3.33 0.585,-5.535 0.63,-2.205 1.71,-3.465 1.08,-1.305 2.52,-1.8 1.485,-0.54 3.195,-0.54 1.8,0 3.24,0.54 1.44,0.54 2.61,1.98 l 0,-13.23 4.905,0 0,33.48 z" />
      <path
         id="path4178"
         style="fill:#939393;fill-opacity:1"
         d="m 69.374642,1036.484 q 0.045,3.51 1.53,5.355 1.485,1.8 4.23,1.8 1.935,0 3.15,-0.9 1.215,-0.9 1.755,-2.475 l 3.06,0.81 q -0.9,3.105 -3.105,4.725 -2.16,1.62 -5.13,1.62 -5.04,0 -7.65,-2.835 -2.61,-2.88 -2.61,-8.955 0,-11.34 9.675,-11.34 4.59,0 6.885,2.745 2.295,2.745 2.295,7.38 0,0.495 -0.045,1.035 -0.045,0.495 -0.135,1.035 l -13.905,0 z m 9.405,-2.88 q -0.09,-2.835 -1.35,-4.275 -1.215,-1.485 -3.24,-1.485 -2.16,0 -3.42,1.53 -1.26,1.53 -1.35,4.23 l 9.36,0 z" />
      <path
         id="path4180"
         style="fill:#939393;fill-opacity:1"
         d="m 106.41808,1047.059 -4.86,0 0,-13.32 q 0,-2.97 -0.945,-4.32 -0.900001,-1.35 -3.060001,-1.35 -2.7,0 -4.5,1.89 l 0,17.1 -4.86,0 0,-22.455 4.455,0 0.09,2.52 q 2.295,-2.835 6.84,-2.835 1.485001,0 2.745001,0.405 1.26,0.405 2.16,1.485 0.9,1.08 1.395,2.97 0.54,1.89 0.54,4.86 l 0,13.05 z" />
      <path
         id="path4182"
         style="fill:#939393;fill-opacity:1"
         d="m 118.07378,1024.604 5.22,0 0,3.33 -5.22,0 0,13.005 q 0,1.44 0.585,2.07 0.585,0.585 1.665,0.585 1.035,0 1.62,-0.315 0.63,-0.36 1.08,-1.035 l 1.575,1.305 q -0.585,1.755 -1.845,2.835 -1.26,1.035 -3.69,1.035 -3.015,0 -4.455,-1.755 -1.395,-1.755 -1.395,-5.13 l 0,-12.6 -3.06,0 0,-3.33 3.06,0 0,-5.625 4.86,-0.675 0,6.3 z" />
      <path
         id="path4184"
         style="fill:#939393;fill-opacity:1"
         d="m 133.21066,1027.484 q 0.81,-1.44 2.34,-2.295 1.53,-0.9 3.33,-0.9 0.675,0 1.53,0.27 0.855,0.225 1.575,0.72 0.765,0.45 1.26,1.125 0.495,0.63 0.495,1.44 0,0.9 -0.63,1.575 -0.63,0.63 -1.44,0.63 -0.63,0 -1.035,-0.315 -0.36,-0.36 -0.81,-0.765 -0.405,-0.45 -0.945,-0.765 -0.54,-0.36 -1.395,-0.36 -1.17,0 -2.385,0.855 -1.17,0.855 -1.575,2.25 l 0,16.11 -4.86,0 0,-22.455 4.455,0 0.09,2.88 z" />
      <path
         id="path4186"
         style="fill:#939393;fill-opacity:1"
         d="m 155.36613,1024.289 q 5.04,0 7.47,2.7 2.43,2.7 2.43,8.73 0,6.12 -2.475,8.955 -2.43,2.79 -7.425,2.79 -5.175,0 -7.605,-2.835 -2.385,-2.835 -2.385,-9.045 0,-5.94 2.43,-8.595 2.475,-2.7 7.56,-2.7 z m -0.09,3.78 q -2.43,0 -3.735,1.71 -1.26,1.71 -1.26,5.535 0,2.25 0.315,3.87 0.36,1.575 0.99,2.565 0.675,0.99 1.62,1.44 0.99,0.45 2.205,0.45 4.995,0 4.995,-7.65 0,-4.275 -1.26,-6.075 -1.26,-1.845 -3.87,-1.845 z" />
      <path
         id="path4188"
         style=""
         d="m 173.52925,1038.374 -2.565,0 -1.44,-19.89 q 0,-0.765 0.09,-1.44 0.09,-0.675 0.36,-1.17 0.315,-0.54 0.855,-0.81 0.54,-0.315 1.44,-0.315 0.855,0 1.395,0.315 0.54,0.27 0.81,0.81 0.27,0.495 0.36,1.17 0.09,0.675 0.09,1.44 l -1.395,19.89 z m 1.35,6.255 q 0,1.62 -0.495,2.07 -0.495,0.45 -2.115,0.45 -1.62,0 -2.115,-0.45 -0.495,-0.45 -0.495,-2.07 0,-1.575 0.495,-2.025 0.495,-0.495 2.115,-0.495 1.62,0 2.115,0.495 0.495,0.45 0.495,2.025 z" />
    </g>
  </g>
</svg>
