<?xml version="1.0" encoding="UTF-8" standalone="no"?>
<svg
   xmlns:dc="http://purl.org/dc/elements/1.1/"
   xmlns:cc="http://creativecommons.org/ns#"
   xmlns:rdf="http://www.w3.org/1999/02/22-rdf-syntax-ns#"
   xmlns:svg="http://www.w3.org/2000/svg"
   xmlns="http://www.w3.org/2000/svg"
   xmlns:sodipodi="http://sodipodi.sourceforge.net/DTD/sodipodi-0.dtd"
   xmlns:inkscape="http://www.inkscape.org/namespaces/inkscape"
   version="1.1"
   id="svg4190"
   viewBox="0 0 16 16"
   height="16"
   width="16"
   inkscape:version="0.91 r13725"
   sodipodi:docname="logo_small.svg">
  <sodipodi:namedview
     pagecolor="#ffffff"
     bordercolor="#666666"
     borderopacity="1"
     objecttolerance="10"
     gridtolerance="10"
     guidetolerance="10"
     inkscape:pageopacity="0"
     inkscape:pageshadow="2"
     inkscape:window-width="751"
     inkscape:window-height="480"
     id="namedview4754"
     showgrid="false"
     inkscape:zoom="14.75"
     inkscape:cx="8"
     inkscape:cy="8"
     inkscape:window-x="0"
     inkscape:window-y="0"
     inkscape:window-maximized="0"
     inkscape:current-layer="svg4190" />
  <defs
     id="defs4192" />
  <metadata
     id="metadata4195">
    <rdf:RDF>
      <cc:Work
         rdf:about="">
        <dc:format>image/svg+xml</dc:format>
        <dc:type
           rdf:resource="http://purl.org/dc/dcmitype/StillImage" />
        <dc:title />
      </cc:Work>
    </rdf:RDF>
  </metadata>
  <g
     transform="translate(0,-1036.3622)"
     id="layer1">
    <g
       style="font-style:normal;font-weight:normal;font-size:15px;line-height:125%;font-family:sans-serif;letter-spacing:0px;word-spacing:0px;fill:#000000;fill-opacity:1;stroke:none;stroke-width:1px;stroke-linecap:butt;stroke-linejoin:miter;stroke-opacity:1"
       id="text4198">
      <path
         d="m 3.7607144,1043.2329 0.855,0 0.48,6.63 q 0,0.255 -0.03,0.48 -0.03,0.225 -0.135,0.39 -0.09,0.18 -0.27,0.27 -0.18,0.105 -0.48,0.105 -0.285,0 -0.465,-0.105 -0.18,-0.09 -0.27,-0.27 -0.09,-0.165 -0.12,-0.39 -0.03,-0.225 -0.03,-0.48 l 0.465,-6.63 z m -0.45,-2.085 q 0,-0.54 0.165,-0.69 0.165,-0.15 0.705,-0.15 0.54,0 0.705,0.15 0.165,0.15 0.165,0.69 0,0.525 -0.165,0.69 -0.165,0.15 -0.705,0.15 -0.54,0 -0.705,-0.15 -0.165,-0.165 -0.165,-0.69 z"
         style="font-style:normal;font-variant:normal;font-weight:normal;font-stretch:normal;font-size:15px;font-family:Negotiate;-inkscape-font-specification:Negotiate;fill:#0094ff;fill-opacity:0"
         id="path4757" />
      <path
         d="m 14.760636,1049.7729 -1.905,0 -0.66,-2.145 -3.6749997,0 -0.63,2.145 -1.665,0 3.36,-10.65 1.7099997,0 3.465,10.65 z m -5.8949997,-3.39 2.9699997,0 -1.5,-4.71 -1.4699997,4.71 z"
         style="font-style:normal;font-variant:normal;font-weight:normal;font-stretch:normal;font-size:15px;font-family:Negotiate;-inkscape-font-specification:Negotiate;fill:#0094ff;fill-opacity:0"
         id="path4759" />
      <path
         d="m 17.213371,1046.8779 -0.855,0 -0.48,-6.63 q 0,-0.255 0.03,-0.48 0.03,-0.225 0.12,-0.39 0.105,-0.18 0.285,-0.27 0.18,-0.105 0.48,-0.105 0.285,0 0.465,0.105 0.18,0.09 0.27,0.27 0.09,0.165 0.12,0.39 0.03,0.225 0.03,0.48 l -0.465,6.63 z m 0.45,2.085 q 0,0.54 -0.165,0.69 -0.165,0.15 -0.705,0.15 -0.54,0 -0.705,-0.15 -0.165,-0.15 -0.165,-0.69 0,-0.525 0.165,-0.675 0.165,-0.165 0.705,-0.165 0.54,0 0.705,0.165 0.165,0.15 0.165,0.675 z"
         style="font-style:normal;font-variant:normal;font-weight:normal;font-stretch:normal;font-size:15px;font-family:Negotiate;-inkscape-font-specification:Negotiate;fill:#0094ff;fill-opacity:0"
         id="path4761" />
    </g>
    <g
       style="font-style:normal;font-variant:normal;font-weight:normal;font-stretch:normal;font-size:15px;line-height:125%;font-family:Negotiate;-inkscape-font-specification:Negotiate;letter-spacing:0px;word-spacing:0px;fill:#0094ff;fill-opacity:1;stroke:none;stroke-width:1px;stroke-linecap:butt;stroke-linejoin:miter;stroke-opacity:1"
       id="text4742">
      <path
         d="m 1.2607143,1043.3223 0.855,0 0.48,6.63 q 0,0.255 -0.03,0.48 -0.03,0.225 -0.135,0.39 -0.09,0.18 -0.27,0.27 -0.18,0.105 -0.48,0.105 -0.285,0 -0.465,-0.105 -0.18,-0.09 -0.26999996,-0.27 -0.09,-0.165 -0.12,-0.39 -0.03,-0.225 -0.03,-0.48 l 0.46499996,-6.63 z m -0.44999996,-2.085 q 0,-0.54 0.165,-0.69 0.16499996,-0.15 0.70499996,-0.15 0.54,0 0.705,0.15 0.165,0.15 0.165,0.69 0,0.525 -0.165,0.69 -0.165,0.15 -0.705,0.15 -0.54,0 -0.70499996,-0.15 -0.165,-0.165 -0.165,-0.69 z"
         style="font-size:15px"
         id="path4764" />
      <path
         d="m 12.260636,1049.8623 -1.905,0 -0.6599998,-2.145 -3.675,0 -0.63,2.145 -1.665,0 3.36,-10.65 1.71,0 3.4649998,10.65 z m -5.8949998,-3.39 2.97,0 -1.5,-4.71 -1.47,4.71 z"
         style="font-size:15px"
         id="path4766" />
      <path
         d="m 14.713371,1046.9673 -0.855,0 -0.48,-6.63 q 0,-0.255 0.03,-0.48 0.03,-0.225 0.12,-0.39 0.105,-0.18 0.285,-0.27 0.18,-0.105 0.48,-0.105 0.285,0 0.465,0.105 0.18,0.09 0.27,0.27 0.09,0.165 0.12,0.39 0.03,0.225 0.03,0.48 l -0.465,6.63 z m 0.45,2.085 q 0,0.54 -0.165,0.69 -0.165,0.15 -0.705,0.15 -0.54,0 -0.705,-0.15 -0.165,-0.15 -0.165,-0.69 0,-0.525 0.165,-0.675 0.165,-0.165 0.705,-0.165 0.54,0 0.705,0.165 0.165,0.15 0.165,0.675 z"
         style="font-size:15px"
         id="path4768" />
    </g>
  </g>
</svg>
